<svg width="26" height="35" viewBox="0 0 26 35" fill="none" xmlns="http://www.w3.org/2000/svg">
<path d="M12.9993 22.083C11.4716 22.083 10.173 21.5604 9.10351 20.5153C8.03407 19.4702 7.49935 18.2011 7.49935 16.708V5.95801C7.49935 4.46495 8.03407 3.19585 9.10351 2.15072C10.173 1.10558 11.4716 0.583008 12.9993 0.583008C14.5271 0.583008 15.8257 1.10558 16.8952 2.15072C17.9646 3.19585 18.4993 4.46495 18.4993 5.95801V16.708C18.4993 18.2011 17.9646 19.4702 16.8952 20.5153C15.8257 21.5604 14.5271 22.083 12.9993 22.083ZM11.166 34.6247V29.1153C7.98824 28.6972 5.36046 27.3087 3.28268 24.9497C1.2049 22.5906 0.166016 19.8434 0.166016 16.708H3.83268C3.83268 19.1865 4.72643 21.2992 6.51393 23.046C8.30143 24.7929 10.4632 25.6663 12.9993 25.6663C15.5355 25.6663 17.6973 24.7929 19.4848 23.046C21.2723 21.2992 22.166 19.1865 22.166 16.708H25.8327C25.8327 19.8434 24.7938 22.5906 22.716 24.9497C20.6382 27.3087 18.0105 28.6972 14.8327 29.1153V34.6247H11.166Z" fill="#EEE5FF"/>
</svg>
