<svg width="735" height="1896" viewBox="0 0 735 1896" fill="none" xmlns="http://www.w3.org/2000/svg">
<g opacity="0.75" filter="url(#filter0_f_31_1538)">
<path d="M184 1212.5C184 1314.4 101.844 1397 0.5 1397C-100.844 1397 -183 1314.4 -183 1212.5C-183 1110.6 -100.844 1028 0.5 1028C101.844 1028 184 1110.6 184 1212.5Z" fill="#58C8FF"/>
<path d="M184 1212.5C184 1314.4 101.844 1397 0.5 1397C-100.844 1397 -183 1314.4 -183 1212.5C-183 1110.6 -100.844 1028 0.5 1028C101.844 1028 184 1110.6 184 1212.5Z" fill="#58C8FF"/>
<path d="M184 1212.5C184 1314.4 101.844 1397 0.5 1397C-100.844 1397 -183 1314.4 -183 1212.5C-183 1110.6 -100.844 1028 0.5 1028C101.844 1028 184 1110.6 184 1212.5Z" fill="#58C8FF"/>
<path d="M184 1212.5C184 1314.4 101.844 1397 0.5 1397C-100.844 1397 -183 1314.4 -183 1212.5C-183 1110.6 -100.844 1028 0.5 1028C101.844 1028 184 1110.6 184 1212.5Z" fill="#58C8FF"/>
</g>
<g opacity="0.75" filter="url(#filter1_f_31_1538)">
<path d="M235.557 917C235.557 1147.86 153.401 1335 52.0566 1335C-49.2876 1335 -131.443 1147.86 -131.443 917C-131.443 686.145 -49.2876 499 52.0566 499C153.401 499 235.557 686.145 235.557 917Z" fill="url(#paint0_linear_31_1538)"/>
</g>
<defs>
<filter id="filter0_f_31_1538" x="-682" y="529" width="1365" height="1367" filterUnits="userSpaceOnUse" color-interpolation-filters="sRGB">
<feFlood flood-opacity="0" result="BackgroundImageFix"/>
<feBlend mode="normal" in="SourceGraphic" in2="BackgroundImageFix" result="shape"/>
<feGaussianBlur stdDeviation="249.5" result="effect1_foregroundBlur_31_1538"/>
</filter>
<filter id="filter1_f_31_1538" x="-630.443" y="0" width="1365" height="1834" filterUnits="userSpaceOnUse" color-interpolation-filters="sRGB">
<feFlood flood-opacity="0" result="BackgroundImageFix"/>
<feBlend mode="normal" in="SourceGraphic" in2="BackgroundImageFix" result="shape"/>
<feGaussianBlur stdDeviation="249.5" result="effect1_foregroundBlur_31_1538"/>
</filter>
<linearGradient id="paint0_linear_31_1538" x1="-131.444" y1="916.997" x2="235.555" y2="916.997" gradientUnits="userSpaceOnUse">
<stop stop-color="#8A00FF"/>
<stop offset="0.9944" stop-color="#55C6FF"/>
</linearGradient>
</defs>
</svg>
