<svg width="862" height="2217" viewBox="0 0 862 2217" fill="none" xmlns="http://www.w3.org/2000/svg">
<g opacity="0.75" filter="url(#filter0_f_2016_1531)">
<path d="M866 683.5C866 785.397 783.844 868 682.5 868C581.156 868 499 785.397 499 683.5C499 581.603 581.156 499 682.5 499C783.844 499 866 581.603 866 683.5Z" fill="#58C8FF"/>
<path d="M866 683.5C866 785.397 783.844 868 682.5 868C581.156 868 499 785.397 499 683.5C499 581.603 581.156 499 682.5 499C783.844 499 866 581.603 866 683.5Z" fill="#58C8FF"/>
<path d="M866 683.5C866 785.397 783.844 868 682.5 868C581.156 868 499 785.397 499 683.5C499 581.603 581.156 499 682.5 499C783.844 499 866 581.603 866 683.5Z" fill="#58C8FF"/>
<path d="M866 683.5C866 785.397 783.844 868 682.5 868C581.156 868 499 785.397 499 683.5C499 581.603 581.156 499 682.5 499C783.844 499 866 581.603 866 683.5Z" fill="#58C8FF"/>
</g>
<g opacity="0.75" filter="url(#filter1_f_2016_1531)">
<ellipse cx="741" cy="1465" rx="171" ry="393" fill="#A2B6FF"/>
</g>
<defs>
<filter id="filter0_f_2016_1531" x="0" y="0" width="1365" height="1367" filterUnits="userSpaceOnUse" color-interpolation-filters="sRGB">
<feFlood flood-opacity="0" result="BackgroundImageFix"/>
<feBlend mode="normal" in="SourceGraphic" in2="BackgroundImageFix" result="shape"/>
<feGaussianBlur stdDeviation="249.5" result="effect1_foregroundBlur_2016_1531"/>
</filter>
<filter id="filter1_f_2016_1531" x="211.6" y="713.6" width="1058.8" height="1502.8" filterUnits="userSpaceOnUse" color-interpolation-filters="sRGB">
<feFlood flood-opacity="0" result="BackgroundImageFix"/>
<feBlend mode="normal" in="SourceGraphic" in2="BackgroundImageFix" result="shape"/>
<feGaussianBlur stdDeviation="179.2" result="effect1_foregroundBlur_2016_1531"/>
</filter>
</defs>
</svg>
