<svg width="430" height="1353" viewBox="0 0 430 1353" fill="none" xmlns="http://www.w3.org/2000/svg">
<g opacity="0.75" filter="url(#filter0_f_1_1360)">
<path d="M5.94165 676.638C5.94165 807.66 -66.2507 913.874 -155.305 913.874C-244.358 913.874 -316.551 807.66 -316.551 676.638C-316.551 545.616 -244.358 439.402 -155.305 439.402C-66.2507 439.402 5.94165 545.616 5.94165 676.638Z" fill="#58C8FF"/>
<path d="M5.94165 676.638C5.94165 807.66 -66.2507 913.874 -155.305 913.874C-244.358 913.874 -316.551 807.66 -316.551 676.638C-316.551 545.616 -244.358 439.402 -155.305 439.402C-66.2507 439.402 5.94165 545.616 5.94165 676.638Z" fill="#58C8FF"/>
<path d="M5.94165 676.638C5.94165 807.66 -66.2507 913.874 -155.305 913.874C-244.358 913.874 -316.551 807.66 -316.551 676.638C-316.551 545.616 -244.358 439.402 -155.305 439.402C-66.2507 439.402 5.94165 545.616 5.94165 676.638Z" fill="#58C8FF"/>
<path d="M5.94165 676.638C5.94165 807.66 -66.2507 913.874 -155.305 913.874C-244.358 913.874 -316.551 807.66 -316.551 676.638C-316.551 545.616 -244.358 439.402 -155.305 439.402C-66.2507 439.402 5.94165 545.616 5.94165 676.638Z" fill="#58C8FF"/>
</g>
<defs>
<filter id="filter0_f_1_1360" x="-755.035" y="0.918152" width="1199.46" height="1351.44" filterUnits="userSpaceOnUse" color-interpolation-filters="sRGB">
<feFlood flood-opacity="0" result="BackgroundImageFix"/>
<feBlend mode="normal" in="SourceGraphic" in2="BackgroundImageFix" result="shape"/>
<feGaussianBlur stdDeviation="219.242" result="effect1_foregroundBlur_1_1360"/>
</filter>
</defs>
</svg>
