<svg width="44" height="44" viewBox="0 0 44 44" fill="none" xmlns="http://www.w3.org/2000/svg">
<path d="M22.0007 42.1663C16.3173 42.1663 11.5354 41.1045 7.65482 38.9809C3.77426 36.8573 1.83398 34.2524 1.83398 31.1663C1.83398 29.058 2.81176 27.1254 4.76732 25.3684C6.72287 23.6115 9.41176 22.2747 12.834 21.358V25.1163C10.6034 25.8191 8.82357 26.7205 7.4944 27.8205C6.16523 28.9205 5.50065 30.0358 5.50065 31.1663C5.50065 33.1219 7.15065 34.833 10.4507 36.2997C13.7507 37.7663 17.6006 38.4997 22.0007 38.4997C26.4007 38.4997 30.2506 37.7663 33.5506 36.2997C36.8507 34.833 38.5006 33.1219 38.5006 31.1663C38.5006 30.0358 37.8361 28.9205 36.5069 27.8205C35.1777 26.7205 33.3979 25.8191 31.1673 25.1163V21.358C34.5895 22.2747 37.2784 23.6115 39.234 25.3684C41.1895 27.1254 42.1673 29.058 42.1673 31.1663C42.1673 34.2524 40.227 36.8573 36.3465 38.9809C32.4659 41.1045 27.684 42.1663 22.0007 42.1663ZM16.5007 34.833V14.6663H7.33398V10.9997H36.6673V14.6663H27.5007V34.833H23.834V25.6663H20.1673V34.833H16.5007ZM22.0007 9.16634C20.9923 9.16634 20.1291 8.80731 19.4111 8.08926C18.693 7.3712 18.334 6.50801 18.334 5.49967C18.334 4.49134 18.693 3.62815 19.4111 2.91009C20.1291 2.19204 20.9923 1.83301 22.0007 1.83301C23.009 1.83301 23.8722 2.19204 24.5902 2.91009C25.3083 3.62815 25.6673 4.49134 25.6673 5.49967C25.6673 6.50801 25.3083 7.3712 24.5902 8.08926C23.8722 8.80731 23.009 9.16634 22.0007 9.16634Z" fill="#6A3BCE"/>
</svg>
