<svg width="44" height="44" viewBox="0 0 44 44" fill="none" xmlns="http://www.w3.org/2000/svg">
<path d="M21.9993 40.3337C19.4632 40.3337 17.0799 39.8524 14.8493 38.8899C12.6188 37.9274 10.6785 36.6212 9.02852 34.9712C7.37852 33.3212 6.07227 31.3809 5.10977 29.1503C4.14727 26.9198 3.66602 24.5364 3.66602 22.0003C3.66602 19.4642 4.14727 17.0809 5.10977 14.8503C6.07227 12.6198 7.37852 10.6795 9.02852 9.02949C10.6785 7.37949 12.6188 6.07324 14.8493 5.11074C17.0799 4.14824 19.4632 3.66699 21.9993 3.66699C24.5355 3.66699 26.9188 4.14824 29.1493 5.11074C31.3799 6.07324 33.3202 7.37949 34.9702 9.02949C36.6202 10.6795 37.9264 12.6198 38.8889 14.8503C39.8514 17.0809 40.3327 19.4642 40.3327 22.0003C40.3327 24.5364 39.8514 26.9198 38.8889 29.1503C37.9264 31.3809 36.6202 33.3212 34.9702 34.9712C33.3202 36.6212 31.3799 37.9274 29.1493 38.8899C26.9188 39.8524 24.5355 40.3337 21.9993 40.3337ZM21.9993 36.667C26.0938 36.667 29.5618 35.2462 32.4035 32.4045C35.2452 29.5628 36.666 26.0948 36.666 22.0003C36.666 21.7864 36.6584 21.5649 36.6431 21.3357C36.6278 21.1066 36.6202 20.9156 36.6202 20.7628C36.4674 21.6489 36.0549 22.3823 35.3827 22.9628C34.7105 23.5434 33.916 23.8337 32.9993 23.8337H29.3327C28.3244 23.8337 27.4612 23.4746 26.7431 22.7566C26.025 22.0385 25.666 21.1753 25.666 20.167V18.3337H18.3327V14.667C18.3327 13.6587 18.6917 12.7955 19.4098 12.0774C20.1278 11.3594 20.991 11.0003 21.9993 11.0003H23.8327C23.8327 10.2975 24.0237 9.6788 24.4056 9.14408C24.7875 8.60935 25.2535 8.17394 25.8035 7.83783C25.1924 7.68505 24.5737 7.56283 23.9473 7.47116C23.3209 7.37949 22.6716 7.33366 21.9993 7.33366C17.9049 7.33366 14.4368 8.75449 11.5952 11.5962C8.75352 14.4378 7.33268 17.9059 7.33268 22.0003H16.4993C18.516 22.0003 20.2424 22.7184 21.6785 24.1545C23.1146 25.5906 23.8327 27.317 23.8327 29.3337V31.167H18.3327V36.2087C18.9438 36.3614 19.5473 36.476 20.1431 36.5524C20.7389 36.6288 21.3577 36.667 21.9993 36.667Z" fill="#40E049"/>
</svg>
