<svg width="44" height="44" viewBox="0 0 44 44" fill="none" xmlns="http://www.w3.org/2000/svg">
<path d="M5.5 31.4423V18.334C5.5 17.3562 5.85903 16.5312 6.57708 15.859C7.29514 15.1868 8.14306 14.8812 9.12083 14.9423C11.5347 15.309 13.834 16.0194 16.0188 17.0736C18.2035 18.1277 20.1972 19.4951 22 21.1757C23.8028 19.4951 25.7965 18.1277 27.9813 17.0736C30.166 16.0194 32.4653 15.309 34.8792 14.9423C35.8569 14.8812 36.7049 15.1868 37.4229 15.859C38.141 16.5312 38.5 17.3562 38.5 18.334V31.4423C38.5 32.4201 38.1792 33.2527 37.5375 33.9402C36.8958 34.6277 36.0861 35.002 35.1083 35.0632C33.1528 35.3687 31.2583 35.8729 29.425 36.5757C27.5917 37.2784 25.8806 38.2104 24.2917 39.3715C23.9556 39.6465 23.5965 39.8527 23.2146 39.9902C22.8326 40.1277 22.4278 40.1965 22 40.1965C21.5722 40.1965 21.1674 40.1277 20.7854 39.9902C20.4035 39.8527 20.0444 39.6465 19.7083 39.3715C18.1194 38.2104 16.4083 37.2784 14.575 36.5757C12.7417 35.8729 10.8472 35.3687 8.89167 35.0632C7.91389 35.002 7.10417 34.6277 6.4625 33.9402C5.82083 33.2527 5.5 32.4201 5.5 31.4423ZM22 36.484C23.925 35.0479 25.9722 33.902 28.1417 33.0465C30.3111 32.1909 32.5417 31.6257 34.8333 31.3507V18.7007C32.6028 19.0979 30.4104 19.9 28.2563 21.1069C26.1021 22.3138 24.0167 23.9257 22 25.9423C19.9833 23.9257 17.8979 22.3138 15.7438 21.1069C13.5896 19.9 11.3972 19.0979 9.16667 18.7007V31.3507C11.4583 31.6257 13.6889 32.1909 15.8583 33.0465C18.0278 33.902 20.075 35.0479 22 36.484ZM22 16.5007C19.9833 16.5007 18.2569 15.7826 16.8208 14.3465C15.3847 12.9104 14.6667 11.184 14.6667 9.16732C14.6667 7.15065 15.3847 5.42426 16.8208 3.98815C18.2569 2.55204 19.9833 1.83398 22 1.83398C24.0167 1.83398 25.7431 2.55204 27.1792 3.98815C28.6153 5.42426 29.3333 7.15065 29.3333 9.16732C29.3333 11.184 28.6153 12.9104 27.1792 14.3465C25.7431 15.7826 24.0167 16.5007 22 16.5007ZM22 12.834C23.0083 12.834 23.8715 12.475 24.5896 11.7569C25.3076 11.0388 25.6667 10.1757 25.6667 9.16732C25.6667 8.15899 25.3076 7.29579 24.5896 6.57773C23.8715 5.85968 23.0083 5.50065 22 5.50065C20.9917 5.50065 20.1285 5.85968 19.4104 6.57773C18.6924 7.29579 18.3333 8.15899 18.3333 9.16732C18.3333 10.1757 18.6924 11.0388 19.4104 11.7569C20.1285 12.475 20.9917 12.834 22 12.834Z" fill="#116CFF"/>
</svg>
