<svg width="44" height="44" viewBox="0 0 44 44" fill="none" xmlns="http://www.w3.org/2000/svg">
<path d="M11.9166 23.8332L13.3548 26.7095C13.8415 27.683 14.0849 28.1697 14.41 28.5915C14.6985 28.9658 15.034 29.3013 15.4083 29.5898C15.8301 29.9149 16.3168 30.1583 17.2903 30.645L20.1666 32.0832L17.2903 33.5213C16.3168 34.0081 15.8301 34.2514 15.4083 34.5766C15.034 34.8651 14.6985 35.2006 14.41 35.5748C14.0849 35.9966 13.8415 36.4834 13.3548 37.4568L11.9166 40.3332L10.4785 37.4568C9.99172 36.4834 9.74836 35.9966 9.42324 35.5748C9.13474 35.2006 8.79921 34.8651 8.42494 34.5766C8.00316 34.2514 7.51643 34.0081 6.54297 33.5213L3.66663 32.0832L6.54297 30.645C7.51643 30.1583 8.00316 29.9149 8.42494 29.5898C8.79921 29.3013 9.13474 28.9658 9.42324 28.5915C9.74836 28.1697 9.99172 27.683 10.4785 26.7095L11.9166 23.8332Z" stroke="#EC9310" stroke-width="3" stroke-linecap="round" stroke-linejoin="round"/>
<path d="M27.5 3.6665L29.6608 9.2846C30.1778 10.6289 30.4363 11.301 30.8383 11.8663C31.1946 12.3674 31.6324 12.8052 32.1334 13.1615C32.6988 13.5635 33.3709 13.822 34.7152 14.339L40.3333 16.4998L34.7152 18.6606C33.3709 19.1777 32.6988 19.4362 32.1334 19.8382C31.6324 20.1945 31.1946 20.6323 30.8383 21.1333C30.4363 21.6987 30.1778 22.3708 29.6608 23.7151L27.5 29.3332L25.3392 23.7151C24.8221 22.3708 24.5636 21.6987 24.1616 21.1333C23.8053 20.6323 23.3675 20.1945 22.8665 19.8382C22.3011 19.4362 21.629 19.1777 20.2847 18.6606L14.6666 16.4998L20.2847 14.339C21.629 13.822 22.3011 13.5635 22.8665 13.1615C23.3675 12.8052 23.8053 12.3674 24.1616 11.8663C24.5636 11.301 24.8221 10.6289 25.3392 9.2846L27.5 3.6665Z" stroke="#EC9310" stroke-width="3" stroke-linecap="round" stroke-linejoin="round"/>
</svg>
