<svg width="44" height="44" viewBox="0 0 44 44" fill="none" xmlns="http://www.w3.org/2000/svg">
<path d="M20.1673 23.558L18.5173 25.1622C18.1812 25.4983 17.7611 25.6663 17.2569 25.6663C16.7527 25.6663 16.3173 25.483 15.9507 25.1163C15.6145 24.7802 15.4465 24.3525 15.4465 23.833C15.4465 23.3136 15.6145 22.8858 15.9507 22.5497L20.7173 17.783C21.084 17.4163 21.5118 17.233 22.0007 17.233C22.4895 17.233 22.9173 17.4163 23.284 17.783L28.0506 22.5497C28.3868 22.8858 28.5625 23.3059 28.5777 23.8101C28.593 24.3143 28.4173 24.7497 28.0506 25.1163C27.7145 25.4525 27.2944 25.6281 26.7902 25.6434C26.2861 25.6587 25.8506 25.4983 25.484 25.1622L23.834 23.558V32.9997H33.9173C35.2006 32.9997 36.2854 32.5566 37.1715 31.6705C38.0576 30.7844 38.5006 29.6997 38.5006 28.4163C38.5006 27.133 38.0576 26.0483 37.1715 25.1622C36.2854 24.2761 35.2006 23.833 33.9173 23.833H31.1673V20.1663C31.1673 17.6302 30.2736 15.4684 28.4861 13.6809C26.6986 11.8934 24.5368 10.9997 22.0007 10.9997C19.4645 10.9997 17.3027 11.8934 15.5152 13.6809C13.7277 15.4684 12.834 17.6302 12.834 20.1663H11.9173C10.1451 20.1663 8.6326 20.7927 7.37982 22.0455C6.12704 23.2983 5.50065 24.8108 5.50065 26.583C5.50065 28.3552 6.12704 29.8677 7.37982 31.1205C8.6326 32.3733 10.1451 32.9997 11.9173 32.9997H14.6673C15.1868 32.9997 15.6222 33.1754 15.9736 33.5268C16.325 33.8781 16.5007 34.3136 16.5007 34.833C16.5007 35.3525 16.325 35.7879 15.9736 36.1393C15.6222 36.4906 15.1868 36.6663 14.6673 36.6663H11.9173C9.13676 36.6663 6.76107 35.7038 4.79023 33.7788C2.8194 31.8538 1.83398 29.5011 1.83398 26.7205C1.83398 24.3372 2.55204 22.2136 3.98815 20.3497C5.42426 18.4858 7.30343 17.2941 9.62565 16.7747C10.3895 13.9636 11.9173 11.6872 14.209 9.94551C16.5007 8.20384 19.0979 7.33301 22.0007 7.33301C25.5756 7.33301 28.6083 8.57815 31.0986 11.0684C33.5888 13.5587 34.834 16.5913 34.834 20.1663C36.9423 20.4108 38.6916 21.3198 40.0819 22.8934C41.4722 24.467 42.1673 26.308 42.1673 28.4163C42.1673 30.708 41.3652 32.6559 39.7611 34.2601C38.1569 35.8643 36.209 36.6663 33.9173 36.6663H23.834C22.8256 36.6663 21.9625 36.3073 21.2444 35.5893C20.5263 34.8712 20.1673 34.008 20.1673 32.9997V23.558Z" fill="#00ACEA"/>
</svg>
