<svg width="44" height="44" viewBox="0 0 44 44" fill="none" xmlns="http://www.w3.org/2000/svg">
<path d="M10.9999 40.3333C9.99159 40.3333 9.12839 39.9742 8.41034 39.2562C7.69228 38.5381 7.33325 37.6749 7.33325 36.6666V18.3333C7.33325 17.3249 7.69228 16.4617 8.41034 15.7437C9.12839 15.0256 9.99159 14.6666 10.9999 14.6666H12.8333V10.9999C12.8333 8.46381 13.727 6.302 15.5145 4.5145C17.302 2.727 19.4638 1.83325 21.9999 1.83325C24.536 1.83325 26.6978 2.727 28.4853 4.5145C30.2728 6.302 31.1666 8.46381 31.1666 10.9999V14.6666H32.9999C34.0083 14.6666 34.8714 15.0256 35.5895 15.7437C36.3076 16.4617 36.6666 17.3249 36.6666 18.3333V36.6666C36.6666 37.6749 36.3076 38.5381 35.5895 39.2562C34.8714 39.9742 34.0083 40.3333 32.9999 40.3333H10.9999ZM10.9999 36.6666H32.9999V18.3333H10.9999V36.6666ZM21.9999 31.1666C23.0083 31.1666 23.8714 30.8076 24.5895 30.0895C25.3076 29.3714 25.6666 28.5083 25.6666 27.4999C25.6666 26.4916 25.3076 25.6284 24.5895 24.9103C23.8714 24.1923 23.0083 23.8333 21.9999 23.8333C20.9916 23.8333 20.1284 24.1923 19.4103 24.9103C18.6923 25.6284 18.3333 26.4916 18.3333 27.4999C18.3333 28.5083 18.6923 29.3714 19.4103 30.0895C20.1284 30.8076 20.9916 31.1666 21.9999 31.1666ZM16.4999 14.6666H27.4999V10.9999C27.4999 9.47214 26.9652 8.17353 25.8958 7.10409C24.8263 6.03464 23.5277 5.49992 21.9999 5.49992C20.4721 5.49992 19.1735 6.03464 18.1041 7.10409C17.0346 8.17353 16.4999 9.47214 16.4999 10.9999V14.6666Z" fill="#6C6C6D"/>
</svg>
