<svg width="129" height="60" viewBox="0 0 129 60" fill="none" xmlns="http://www.w3.org/2000/svg">
<rect x="-0.00390625" width="129.006" height="60" rx="30" fill="url(#paint0_linear_1_3010)"/>
<rect x="-0.00390625" width="129.006" height="60" rx="30" fill="url(#paint1_linear_1_3010)"/>
<path fill-rule="evenodd" clip-rule="evenodd" d="M27.707 13.1059L27.7082 13.1063C27.7009 13.0391 27.6942 12.9734 27.6881 12.9093L28.6836 12.8145C28.8096 14.1377 29.1856 16.0797 30.2989 17.7267C31.3948 19.3481 33.2279 20.7204 36.3694 20.9052L36.3756 21.903C33.7923 22.0876 32.1744 23.091 31.0504 24.4848C29.9044 25.9058 29.247 27.7614 28.6648 29.7021L28.6635 29.7018C28.6708 29.7689 28.6775 29.8346 28.6836 29.8988L27.6881 29.9936C27.5621 28.6704 27.1861 26.7283 26.0728 25.0813C24.9769 23.46 23.1438 22.0877 20.0024 21.9029L19.9961 20.905C22.5795 20.7205 24.1973 19.717 25.3213 18.3233C26.4673 16.9022 27.1247 15.0467 27.707 13.1059Z" fill="#1E1E1E"/>
<g clip-path="url(#clip0_1_3010)">
<path d="M26.0027 44.459H27.9458L49.4572 22.9476L47.514 21.0044L26.0027 42.5158V44.459ZM23.2754 47.1863V41.3908L49.4572 15.2431C49.7299 14.9931 50.0311 14.7999 50.3606 14.6635C50.6902 14.5272 51.0368 14.459 51.4004 14.459C51.764 14.459 52.1163 14.5272 52.4572 14.6635C52.7981 14.7999 53.0936 15.0044 53.3436 15.2772L55.2186 17.1863C55.4913 17.4363 55.6902 17.7317 55.8152 18.0726C55.9402 18.4135 56.0027 18.7544 56.0027 19.0953C56.0027 19.459 55.9402 19.8056 55.8152 20.1351C55.6902 20.4647 55.4913 20.7658 55.2186 21.0385L29.0708 47.1863H23.2754ZM48.4686 21.9931L47.514 21.0044L49.4572 22.9476L48.4686 21.9931Z" fill="#1E1E1E"/>
</g>
<path d="M77.1109 13.728H83.4949L96.6949 48H90.2629L87.0469 38.928H73.3669L70.1509 48H63.9589L77.1109 13.728ZM74.9989 34.368H85.4629L80.3269 19.632H80.1829L74.9989 34.368ZM98.9986 13.728H104.999V48H98.9986V13.728Z" fill="#1E1E1E"/>
<defs>
<linearGradient id="paint0_linear_1_3010" x1="186.911" y1="71.2934" x2="5.72844" y2="-70.5433" gradientUnits="userSpaceOnUse">
<stop stop-color="#DEE3FB"/>
<stop offset="0.17" stop-color="#DBE1FB"/>
<stop offset="0.965" stop-color="#7FACF3"/>
</linearGradient>
<linearGradient id="paint1_linear_1_3010" x1="186.911" y1="71.2934" x2="5.72844" y2="-70.5433" gradientUnits="userSpaceOnUse">
<stop stop-color="#DEE3FB"/>
<stop offset="0.5" stop-color="#A5C9FF"/>
<stop offset="1" stop-color="#00ACEA"/>
</linearGradient>
<clipPath id="clip0_1_3010">
<rect width="32.7273" height="32.7273" fill="white" transform="translate(23.2754 14.459)"/>
</clipPath>
</defs>
</svg>
