<svg width="115" height="47" viewBox="0 0 115 47" fill="none" xmlns="http://www.w3.org/2000/svg">
<path d="M77.4609 12.9122H82.9009V10.1602C82.9009 8.06953 83.1569 6.3842 83.6689 5.1042C84.1809 3.78153 84.8636 2.77887 85.7169 2.0962C86.5703 1.37087 87.5303 0.901535 88.5969 0.688202C89.7063 0.4322 90.8583 0.304199 92.0529 0.304199C94.3996 0.304199 96.1063 0.453533 97.1729 0.752201V6.4482C96.7036 6.3202 96.1916 6.23487 95.6369 6.1922C95.1249 6.10687 94.5063 6.0642 93.7809 6.0642C92.7996 6.0642 91.9463 6.29887 91.2209 6.7682C90.5383 7.23753 90.1969 8.15487 90.1969 9.5202V12.9122H96.4049V18.3522H90.1969V46.0002H82.9009V18.3522H77.4609V12.9122Z" fill="#7ACFF9"/>
<path d="M102.959 12L109.844 13.2642L103.884 45.7216L96.9993 44.4574L102.959 12Z" fill="black"/>
<path d="M102.959 12L109.844 13.2642L108.941 18.182L102.056 16.9178L102.959 12Z" fill="#EF8598"/>
<path d="M72.8751 38.6401C72.8751 39.5361 72.9818 40.1761 73.1951 40.5601C73.4511 40.9441 73.9204 41.1361 74.6031 41.1361C74.8164 41.1361 75.0724 41.1361 75.3711 41.1361C75.6698 41.1361 76.0111 41.0934 76.3951 41.0081V46.0641C76.1391 46.1494 75.7978 46.2348 75.3711 46.3201C74.9871 46.4481 74.5818 46.5548 74.1551 46.6401C73.7284 46.7254 73.3018 46.7894 72.8751 46.8321C72.4484 46.8748 72.0858 46.8961 71.7871 46.8961C70.2938 46.8961 69.0564 46.5974 68.0751 46.0001C67.0938 45.4028 66.4538 44.3574 66.1551 42.8641C64.7044 44.2721 62.9124 45.2961 60.7791 45.9361C58.6884 46.5761 56.6618 46.8961 54.6991 46.8961C53.2058 46.8961 51.7764 46.6828 50.4111 46.2561C49.0458 45.8721 47.8298 45.2961 46.7631 44.5281C45.7391 43.7174 44.9071 42.7148 44.2671 41.5201C43.6698 40.2828 43.3711 38.8534 43.3711 37.2321C43.3711 35.1841 43.7338 33.5201 44.4591 32.2401C45.2271 30.9601 46.2084 29.9574 47.4031 29.2321C48.6404 28.5068 50.0058 27.9948 51.4991 27.6961C53.0351 27.3548 54.5711 27.0988 56.1071 26.9281C57.4298 26.6721 58.6884 26.5014 59.8831 26.4161C61.0778 26.2881 62.1231 26.0961 63.0191 25.8401C63.9578 25.5841 64.6831 25.2001 65.1951 24.6881C65.7498 24.1334 66.0271 23.3228 66.0271 22.2561C66.0271 21.3174 65.7924 20.5494 65.3231 19.9521C64.8964 19.3548 64.3418 18.9068 63.6591 18.6081C63.0191 18.2668 62.2938 18.0534 61.4831 17.9681C60.6724 17.8401 59.9044 17.7761 59.1791 17.7761C57.1311 17.7761 55.4458 18.2028 54.1231 19.0561C52.8004 19.9094 52.0538 21.2321 51.8831 23.0241H44.5871C44.7151 20.8908 45.2271 19.1201 46.1231 17.7121C47.0191 16.3041 48.1498 15.1734 49.5151 14.3201C50.9231 13.4668 52.5018 12.8694 54.2511 12.5281C56.0004 12.1868 57.7924 12.0161 59.6271 12.0161C61.2484 12.0161 62.8484 12.1868 64.4271 12.5281C66.0058 12.8694 67.4138 13.4241 68.6511 14.1921C69.9311 14.9601 70.9551 15.9628 71.7231 17.2001C72.4911 18.3948 72.8751 19.8668 72.8751 21.6161V38.6401ZM65.5791 29.4241C64.4698 30.1494 63.1044 30.5974 61.4831 30.7681C59.8618 30.8961 58.2404 31.1094 56.6191 31.4081C55.8511 31.5361 55.1044 31.7281 54.3791 31.9841C53.6538 32.1974 53.0138 32.5174 52.4591 32.9441C51.9044 33.3281 51.4564 33.8614 51.1151 34.5441C50.8164 35.1841 50.6671 35.9734 50.6671 36.9121C50.6671 37.7228 50.9018 38.4054 51.3711 38.9601C51.8404 39.5148 52.3951 39.9628 53.0351 40.3041C53.7178 40.6028 54.4431 40.8161 55.2111 40.9441C56.0218 41.0721 56.7471 41.1361 57.3871 41.1361C58.1978 41.1361 59.0724 41.0294 60.0111 40.8161C60.9498 40.6028 61.8244 40.2401 62.6351 39.7281C63.4884 39.2161 64.1924 38.5761 64.7471 37.8081C65.3018 36.9974 65.5791 36.0161 65.5791 34.8641V29.4241Z" fill="#7ACFF9"/>
<path d="M0 0.304199H18.944C22.4427 0.304199 25.472 0.901533 28.032 2.0962C30.592 3.29087 32.6827 4.93353 34.304 7.0242C35.9253 9.0722 37.12 11.4829 37.888 14.2562C38.6987 17.0295 39.104 19.9949 39.104 23.1522C39.104 26.3095 38.6987 29.2749 37.888 32.0482C37.12 34.8215 35.9253 37.2535 34.304 39.3442C32.6827 41.3922 30.592 43.0135 28.032 44.2082C25.472 45.4029 22.4427 46.0002 18.944 46.0002H0V0.304199ZM8 39.4722H15.872C18.9867 39.4722 21.5253 39.0669 23.488 38.2562C25.4933 37.4029 27.0507 36.2509 28.16 34.8002C29.312 33.3069 30.08 31.5789 30.464 29.6162C30.8907 27.6109 31.104 25.4562 31.104 23.1522C31.104 20.8482 30.8907 18.7149 30.464 16.7522C30.08 14.7469 29.312 13.0189 28.16 11.5682C27.0507 10.0749 25.4933 8.92287 23.488 8.1122C21.5253 7.25887 18.9867 6.8322 15.872 6.8322H8V39.4722Z" fill="#7ACFF9"/>
<path d="M106.771 3.52844C106.858 3.32781 107.142 3.32781 107.229 3.52844L108.171 5.69891C108.197 5.75708 108.243 5.80348 108.301 5.82872L110.472 6.77067C110.672 6.85774 110.672 7.14226 110.472 7.22933L108.301 8.17128C108.243 8.19652 108.197 8.24292 108.171 8.30109L107.229 10.4716C107.142 10.6722 106.858 10.6722 106.771 10.4716L105.829 8.30109C105.803 8.24292 105.757 8.19652 105.699 8.17128L103.528 7.22933C103.328 7.14226 103.328 6.85774 103.528 6.77067L105.699 5.82872C105.757 5.80348 105.803 5.75708 105.829 5.69891L106.771 3.52844Z" fill="black"/>
<path d="M112.271 0.528441C112.358 0.327811 112.642 0.327811 112.729 0.528441L113.217 1.65287C113.243 1.71104 113.289 1.75744 113.347 1.78268L114.472 2.27067C114.672 2.35774 114.672 2.64226 114.472 2.72933L113.347 3.21732C113.289 3.24256 113.243 3.28896 113.217 3.34713L112.729 4.47156C112.642 4.67219 112.358 4.67219 112.271 4.47156L111.783 3.34713C111.757 3.28896 111.711 3.24256 111.653 3.21732L110.528 2.72933C110.328 2.64226 110.328 2.35774 110.528 2.27067L111.653 1.78268C111.711 1.75744 111.757 1.71104 111.783 1.65287L112.271 0.528441Z" fill="#EF8598"/>
</svg>
