<svg width="59" height="24" viewBox="0 0 59 24" fill="none" xmlns="http://www.w3.org/2000/svg">
<path d="M39.6426 6.60768H42.4266V5.19929C42.4266 4.12935 42.5576 3.26684 42.8197 2.61177C43.0817 1.93487 43.431 1.42174 43.8678 1.07237C44.3045 0.701163 44.7958 0.460972 45.3417 0.351795C45.9094 0.220781 46.4989 0.155273 47.1103 0.155273C48.3113 0.155273 49.1847 0.231698 49.7306 0.384548V3.29959C49.4904 3.23409 49.2284 3.19042 48.9445 3.16858C48.6825 3.12491 48.3659 3.10307 47.9947 3.10307C47.4925 3.10307 47.0557 3.22317 46.6845 3.46336C46.3352 3.70355 46.1605 4.17302 46.1605 4.87175V6.60768H49.3376V9.39172H46.1605V23.5412H42.4266V9.39172H39.6426V6.60768Z" fill="black"/>
<path d="M52.6914 6.1416L56.2149 6.78856L53.1649 23.3993L49.6414 22.7524L52.6914 6.1416Z" fill="#7ACFF9"/>
<path d="M52.6914 6.1416L56.2149 6.78856L55.7528 9.30534L52.2293 8.65838L52.6914 6.1416Z" fill="#EF8598"/>
<path d="M37.2946 19.7748C37.2946 20.2333 37.3492 20.5609 37.4584 20.7574C37.5894 20.9539 37.8296 21.0522 38.1789 21.0522C38.2881 21.0522 38.4191 21.0522 38.572 21.0522C38.7248 21.0522 38.8995 21.0303 39.096 20.9867V23.5742C38.965 23.6179 38.7903 23.6615 38.572 23.7052C38.3755 23.7707 38.168 23.8253 37.9497 23.869C37.7313 23.9126 37.513 23.9454 37.2946 23.9672C37.0762 23.9891 36.8906 24 36.7378 24C35.9736 24 35.3403 23.8471 34.8381 23.5414C34.3359 23.2357 34.0083 22.7008 33.8555 21.9365C33.1131 22.6571 32.196 23.1811 31.1042 23.5087C30.0343 23.8362 28.9971 24 27.9927 24C27.2284 24 26.4969 23.8908 25.7982 23.6724C25.0994 23.4759 24.4771 23.1811 23.9312 22.7881C23.4072 22.3732 22.9814 21.8601 22.6539 21.2487C22.3482 20.6155 22.1953 19.884 22.1953 19.0542C22.1953 18.0061 22.3809 17.1545 22.7521 16.4995C23.1452 15.8444 23.6474 15.3313 24.2588 14.9601C24.892 14.5889 25.5907 14.3268 26.355 14.174C27.1411 13.9993 27.9271 13.8683 28.7132 13.7809C29.3901 13.6499 30.0343 13.5626 30.6457 13.5189C31.2571 13.4534 31.792 13.3551 32.2506 13.2241C32.731 13.0931 33.1022 12.8966 33.3642 12.6346C33.6481 12.3507 33.79 11.9358 33.79 11.3899C33.79 10.9096 33.6699 10.5165 33.4297 10.2108C33.2113 9.90513 32.9275 9.67586 32.5781 9.52301C32.2506 9.34832 31.8794 9.23915 31.4645 9.19547C31.0496 9.12997 30.6566 9.09721 30.2854 9.09721C29.2373 9.09721 28.3748 9.31557 27.6979 9.75228C27.021 10.189 26.6388 10.8659 26.5515 11.783H22.8176C22.8831 10.6912 23.1452 9.78503 23.6037 9.06446C24.0623 8.34389 24.6409 7.76524 25.3396 7.32853C26.0602 6.89182 26.8681 6.58612 27.7634 6.41144C28.6586 6.23676 29.5757 6.14941 30.5147 6.14941C31.3444 6.14941 32.1632 6.23676 32.9712 6.41144C33.7791 6.58612 34.4997 6.86999 35.1329 7.26303C35.7879 7.65607 36.312 8.1692 36.705 8.80243C37.0981 9.41383 37.2946 10.1672 37.2946 11.0624V19.7748ZM33.5607 15.0583C32.993 15.4295 32.2943 15.6588 31.4645 15.7461C30.6348 15.8116 29.805 15.9208 28.9753 16.0737C28.5822 16.1392 28.2001 16.2374 27.8289 16.3685C27.4577 16.4776 27.1301 16.6414 26.8463 16.8598C26.5624 17.0563 26.3331 17.3292 26.1585 17.6786C26.0056 18.0061 25.9292 18.4101 25.9292 18.8905C25.9292 19.3053 26.0493 19.6547 26.2895 19.9386C26.5297 20.2224 26.8135 20.4517 27.1411 20.6264C27.4904 20.7792 27.8616 20.8884 28.2547 20.9539C28.6696 21.0194 29.0408 21.0522 29.3683 21.0522C29.7832 21.0522 30.2308 20.9976 30.7112 20.8884C31.1916 20.7792 31.6392 20.5936 32.0541 20.3316C32.4908 20.0696 32.8511 19.742 33.1349 19.349C33.4188 18.9341 33.5607 18.4319 33.5607 17.8424V15.0583Z" fill="black"/>
<path d="M0 0.155273H9.69499C11.4855 0.155273 13.0358 0.460971 14.346 1.07237C15.6561 1.68376 16.726 2.52443 17.5558 3.59437C18.3855 4.64248 18.9969 5.87619 19.39 7.2955C19.8048 8.71481 20.0123 10.2324 20.0123 11.8482C20.0123 13.464 19.8048 14.9816 19.39 16.4009C18.9969 17.8202 18.3855 19.0649 17.5558 20.1348C16.726 21.1829 15.6561 22.0127 14.346 22.6241C13.0358 23.2355 11.4855 23.5412 9.69499 23.5412H0V0.155273ZM4.09417 20.2003H8.12283C9.71682 20.2003 11.016 19.9929 12.0205 19.578C13.0467 19.1413 13.8437 18.5517 14.4115 17.8093C15.001 17.0451 15.3941 16.1607 15.5906 15.1563C15.8089 14.13 15.9181 13.0273 15.9181 11.8482C15.9181 10.6691 15.8089 9.57732 15.5906 8.57288C15.3941 7.54661 15.001 6.66227 14.4115 5.91986C13.8437 5.15562 13.0467 4.56606 12.0205 4.15118C11.016 3.71447 9.71682 3.49611 8.12283 3.49611H4.09417V20.2003Z" fill="black"/>
<path d="M54.6426 1.8056C54.6872 1.70292 54.8328 1.70292 54.8773 1.8056L55.3594 2.91638C55.3723 2.94615 55.3961 2.96989 55.4258 2.98281L56.5366 3.46487C56.6393 3.50943 56.6393 3.65505 56.5366 3.69961L55.4258 4.18167C55.3961 4.19459 55.3723 4.21833 55.3594 4.2481L54.8773 5.35888C54.8328 5.46156 54.6872 5.46156 54.6426 5.35888L54.1605 4.2481C54.1476 4.21833 54.1239 4.19459 54.0941 4.18167L52.9833 3.69961C52.8807 3.65505 52.8807 3.50943 52.9833 3.46487L54.0941 2.98281C54.1239 2.96989 54.1476 2.94615 54.1605 2.91638L54.6426 1.8056Z" fill="#7ACFF9"/>
<path d="M57.457 0.270441C57.5015 0.167764 57.6472 0.167764 57.6917 0.270441L57.9415 0.845892C57.9544 0.875659 57.9781 0.899406 58.0079 0.912324L58.5833 1.16206C58.686 1.20662 58.686 1.35223 58.5833 1.39679L58.0079 1.64653C57.9781 1.65945 57.9544 1.68319 57.9415 1.71296L57.6917 2.28841C57.6472 2.39109 57.5015 2.39109 57.457 2.28841L57.2072 1.71296C57.1943 1.68319 57.1706 1.65945 57.1408 1.64653L56.5654 1.39679C56.4627 1.35223 56.4627 1.20662 56.5654 1.16206L57.1408 0.912324C57.1706 0.899406 57.1943 0.875659 57.2072 0.845892L57.457 0.270441Z" fill="#EF8598"/>
</svg>
