<svg width="90" height="90" viewBox="0 0 90 90" fill="none" xmlns="http://www.w3.org/2000/svg">
<rect width="90" height="90" rx="45" fill="#262626"/>
<path d="M59 25.4486V39.8076C59 42.1481 57.4923 44.1152 55.4103 44.8619V31.1922C55.4103 27.0424 52.0215 23.6537 47.8718 23.6537H37.0738C37.8205 21.5717 39.7877 20.064 42.1282 20.064H53.6154C56.5877 20.064 59 22.4763 59 25.4486ZM40.6923 30.1152H43.5641C44.5549 30.1152 45.359 29.3111 45.359 28.3204V25.8076H38.8974V28.3204C38.8974 29.3111 39.7015 30.1152 40.6923 30.1152ZM53.2564 31.1922V45.5511C53.2564 48.5235 50.8441 50.9358 47.8718 50.9358H36.3846C33.4123 50.9358 31 48.5235 31 45.5511V31.1922C31 28.2199 33.4123 25.8076 36.3846 25.8076H36.7436V28.3204C36.7436 30.5029 38.5097 32.2691 40.6923 32.2691H43.5641C45.7467 32.2691 47.5128 30.5029 47.5128 28.3204V25.8076H47.8718C50.8441 25.8076 53.2564 28.2199 53.2564 31.1922ZM47.5128 44.1152C47.5128 43.5265 47.0246 43.0383 46.4359 43.0383H37.8205C37.2318 43.0383 36.7436 43.5265 36.7436 44.1152C36.7436 44.704 37.2318 45.1922 37.8205 45.1922H46.4359C47.0246 45.1922 47.5128 44.704 47.5128 44.1152ZM47.5128 38.3717C47.5128 37.7829 47.0246 37.2947 46.4359 37.2947H37.8205C37.2318 37.2947 36.7436 37.7829 36.7436 38.3717C36.7436 38.9604 37.2318 39.4486 37.8205 39.4486H46.4359C47.0246 39.4486 47.5128 38.9604 47.5128 38.3717Z" fill="#79E150"/>
<path d="M21.6929 62.8155H24.7829C25.5429 62.8155 26.1529 63.0055 26.5929 63.3655C27.0329 63.7255 27.2629 64.2655 27.2629 64.9855C27.2629 65.6655 27.0529 66.2055 26.6429 66.6055C26.2229 67.0055 25.6629 67.1955 24.9529 67.1955H22.9429V69.9355H21.6929V62.8155ZM22.9429 63.8555V66.1855H24.6829C25.5829 66.1855 26.0429 65.7955 26.0429 65.0155C26.0429 64.2455 25.5529 63.8555 24.5729 63.8555H22.9429ZM28.1428 66.3655C28.2628 65.2055 29.0128 64.6155 30.4028 64.6155C31.0428 64.6155 31.5628 64.7455 31.9428 64.9955C32.3228 65.2555 32.5228 65.6455 32.5228 66.1755V68.7955C32.5228 68.9455 32.5328 69.0455 32.5728 69.0955C32.6128 69.1555 32.6828 69.1755 32.7928 69.1755C32.8728 69.1755 32.9528 69.1755 33.0528 69.1555V69.9555C32.7528 70.0355 32.5128 70.0655 32.3128 70.0655C31.8228 70.0655 31.5428 69.8655 31.4728 69.4455C31.0328 69.8655 30.4328 70.0655 29.6628 70.0655C29.1228 70.0655 28.7028 69.9355 28.3928 69.6555C28.0728 69.3755 27.9228 69.0055 27.9228 68.5255C27.9228 68.3855 27.9328 68.2455 27.9728 68.1155C28.0028 67.9955 28.0428 67.8855 28.0828 67.7855C28.1228 67.6955 28.1928 67.6055 28.2928 67.5255C28.3928 67.4455 28.4728 67.3855 28.5328 67.3255C28.5928 67.2755 28.7028 67.2255 28.8428 67.1755C28.9828 67.1355 29.0928 67.0955 29.1628 67.0755C29.2328 67.0555 29.3528 67.0255 29.5328 66.9955C29.7028 66.9755 29.8128 66.9555 29.8728 66.9455C29.9328 66.9355 30.0528 66.9155 30.2328 66.8955C30.6328 66.8455 30.9128 66.8055 31.0628 66.7655C31.2028 66.7255 31.3028 66.6755 31.3628 66.5955C31.4028 66.5455 31.4328 66.4255 31.4328 66.2255C31.4328 65.7055 31.0728 65.4455 30.3728 65.4455C29.9928 65.4455 29.7228 65.5155 29.5528 65.6555C29.3728 65.7955 29.2628 66.0355 29.2228 66.3655H28.1428ZM31.4228 67.3455C31.3328 67.3955 31.2328 67.4355 31.1228 67.4755C31.0028 67.5155 30.9128 67.5355 30.8428 67.5455C30.7728 67.5555 30.6628 67.5655 30.5128 67.5855C30.3628 67.6055 30.2628 67.6255 30.2228 67.6255C30.0828 67.6455 29.9728 67.6655 29.8928 67.6855C29.8128 67.7055 29.7128 67.7255 29.5928 67.7655C29.4728 67.8055 29.3828 67.8555 29.3228 67.9155C29.2628 67.9755 29.2028 68.0455 29.1628 68.1455C29.1128 68.2455 29.0928 68.3555 29.0928 68.4855C29.0928 68.7355 29.1728 68.9255 29.3328 69.0555C29.4928 69.1955 29.7228 69.2555 30.0228 69.2555C30.5228 69.2555 30.9128 69.1255 31.1928 68.8455C31.3428 68.6955 31.4228 68.3955 31.4228 67.9555V67.3455ZM37.8394 66.2755H36.7494C36.6794 65.7355 36.3094 65.4555 35.6294 65.4555C35.3294 65.4555 35.1094 65.5155 34.9494 65.6155C34.7894 65.7255 34.7094 65.8755 34.7094 66.0555C34.7094 66.1155 34.7094 66.1755 34.7194 66.2155C34.7294 66.2655 34.7494 66.3055 34.7794 66.3455C34.8094 66.3855 34.8394 66.4155 34.8594 66.4355C34.8794 66.4655 34.9294 66.4955 34.9894 66.5155C35.0494 66.5455 35.0894 66.5655 35.1294 66.5855C35.1694 66.6055 35.2294 66.6255 35.3194 66.6455C35.3994 66.6655 35.4694 66.6855 35.5194 66.6955C35.5694 66.7155 35.6494 66.7355 35.7694 66.7555C35.8794 66.7755 35.9694 66.7955 36.0294 66.8055C36.2894 66.8655 36.4694 66.9155 36.5894 66.9455C36.7094 66.9755 36.8794 67.0355 37.0994 67.1255C37.3194 67.2155 37.4894 67.3055 37.5994 67.4055C37.6994 67.5055 37.7994 67.6355 37.8894 67.8055C37.9794 67.9755 38.0294 68.1655 38.0294 68.3855C38.0294 68.9055 37.8194 69.3255 37.4194 69.6255C37.0094 69.9355 36.4594 70.0855 35.7794 70.0855C35.0394 70.0855 34.4794 69.9355 34.0894 69.6255C33.6894 69.3255 33.4794 68.8755 33.4594 68.2855H34.5494C34.6094 68.9355 35.0194 69.2555 35.7994 69.2555C36.1294 69.2555 36.3994 69.1955 36.5994 69.0555C36.7994 68.9155 36.9094 68.7355 36.9094 68.5055C36.9094 68.3955 36.8794 68.2955 36.8294 68.2155C36.7794 68.1355 36.6994 68.0755 36.5894 68.0155C36.4694 67.9555 36.3594 67.9155 36.2594 67.8855C36.1594 67.8555 36.0194 67.8155 35.8494 67.7755L35.7894 67.7655C35.7694 67.7655 35.7594 67.7555 35.7394 67.7555C35.7194 67.7555 35.6994 67.7455 35.6794 67.7355C34.9394 67.5555 34.4794 67.4155 34.2794 67.3155C33.7994 67.0955 33.5694 66.7155 33.5694 66.1855C33.5694 65.7055 33.7494 65.3255 34.1294 65.0455C34.4994 64.7655 35.0194 64.6255 35.6794 64.6255C36.3094 64.6255 36.8294 64.7655 37.2294 65.0355C37.6294 65.3155 37.8394 65.7255 37.8394 66.2755ZM41.455 64.7755V65.6055H40.415V68.3255C40.415 68.4855 40.415 68.6055 40.425 68.6655C40.425 68.7255 40.445 68.7955 40.485 68.8755C40.515 68.9555 40.575 69.0055 40.655 69.0255C40.735 69.0555 40.855 69.0655 41.005 69.0655C41.185 69.0655 41.335 69.0655 41.455 69.0455V69.9455C41.225 69.9755 40.965 69.9855 40.685 69.9855C40.485 69.9855 40.305 69.9755 40.155 69.9455C40.005 69.9155 39.885 69.8755 39.785 69.8355C39.685 69.7955 39.595 69.7355 39.535 69.6355C39.465 69.5355 39.415 69.4555 39.375 69.3955C39.335 69.3355 39.315 69.2155 39.295 69.0555C39.275 68.8955 39.275 68.7755 39.275 68.6955V68.2555V68.1955V68.1355V68.0655V65.6055H38.415V64.7755H39.275V63.2255H40.415V64.7755H41.455ZM46.885 68.3255C46.755 68.8855 46.475 69.3255 46.055 69.6355C45.635 69.9555 45.125 70.1055 44.545 70.1055C43.765 70.1055 43.145 69.8555 42.685 69.3555C42.225 68.8555 42.005 68.2055 42.005 67.4155C42.005 66.6155 42.235 65.9455 42.705 65.4155C43.175 64.8955 43.775 64.6255 44.505 64.6255C45.255 64.6255 45.855 64.8855 46.295 65.4055C46.735 65.9255 46.955 66.6255 46.955 67.5155V67.6355H43.145C43.155 68.1555 43.285 68.5655 43.535 68.8455C43.775 69.1255 44.125 69.2655 44.565 69.2655C44.875 69.2655 45.125 69.1955 45.325 69.0455C45.525 68.8955 45.675 68.6555 45.795 68.3255H46.885ZM45.815 66.8755C45.775 66.4455 45.645 66.1055 45.405 65.8555C45.165 65.6055 44.865 65.4755 44.495 65.4755C44.115 65.4755 43.815 65.5955 43.585 65.8355C43.355 66.0755 43.215 66.4255 43.165 66.8755H45.815ZM55.8649 62.8155V63.8955H53.5949V69.9355H52.3449V63.8955H50.0749V62.8155H55.8649ZM60.0393 68.3255C59.9093 68.8855 59.6293 69.3255 59.2093 69.6355C58.7893 69.9555 58.2793 70.1055 57.6993 70.1055C56.9193 70.1055 56.2993 69.8555 55.8393 69.3555C55.3793 68.8555 55.1593 68.2055 55.1593 67.4155C55.1593 66.6155 55.3893 65.9455 55.8593 65.4155C56.3293 64.8955 56.9293 64.6255 57.6593 64.6255C58.4093 64.6255 59.0093 64.8855 59.4493 65.4055C59.8893 65.9255 60.1093 66.6255 60.1093 67.5155V67.6355H56.2993C56.3093 68.1555 56.4393 68.5655 56.6893 68.8455C56.9293 69.1255 57.2793 69.2655 57.7193 69.2655C58.0293 69.2655 58.2793 69.1955 58.4793 69.0455C58.6793 68.8955 58.8293 68.6555 58.9493 68.3255H60.0393ZM58.9693 66.8755C58.9293 66.4455 58.7993 66.1055 58.5593 65.8555C58.3193 65.6055 58.0193 65.4755 57.6493 65.4755C57.2693 65.4755 56.9693 65.5955 56.7393 65.8355C56.5093 66.0755 56.3693 66.4255 56.3193 66.8755H58.9693ZM62.356 67.2255L60.566 64.7755H61.946L63.026 66.3655L64.156 64.7755H65.476L63.726 67.1655L65.696 69.9355H64.326L63.016 68.0355L61.746 69.9355H60.406L62.356 67.2255ZM68.8671 64.7755V65.6055H67.8271V68.3255C67.8271 68.4855 67.8271 68.6055 67.8371 68.6655C67.8371 68.7255 67.8571 68.7955 67.8971 68.8755C67.9271 68.9555 67.9871 69.0055 68.0671 69.0255C68.1471 69.0555 68.2671 69.0655 68.4171 69.0655C68.5971 69.0655 68.7471 69.0655 68.8671 69.0455V69.9455C68.6371 69.9755 68.3771 69.9855 68.0971 69.9855C67.8971 69.9855 67.7171 69.9755 67.5671 69.9455C67.4171 69.9155 67.2971 69.8755 67.1971 69.8355C67.0971 69.7955 67.0071 69.7355 66.9471 69.6355C66.8771 69.5355 66.8271 69.4555 66.7871 69.3955C66.7471 69.3355 66.7271 69.2155 66.7071 69.0555C66.6871 68.8955 66.6871 68.7755 66.6871 68.6955V68.2555V68.1955V68.1355V68.0655V65.6055H65.8271V64.7755H66.6871V63.2255H67.8271V64.7755H68.8671Z" fill="#79E150"/>
</svg>
