<svg width="90" height="90" viewBox="0 0 90 90" fill="none" xmlns="http://www.w3.org/2000/svg">
<rect width="90" height="90" rx="45" fill="#262626"/>
<path d="M61.2478 21.3996L61.2903 21.6772C60.8794 20.2195 59.7702 19.0947 58.3606 18.6853L58.3309 18.6782C55.6803 17.9585 45.0144 17.9585 45.0144 17.9585C45.0144 17.9585 34.3753 17.9443 31.6979 18.6782C30.2614 19.0947 29.1507 20.2195 28.747 21.6475L28.7399 21.6772C27.7497 26.8494 27.7426 33.0642 28.7838 38.6019L28.7399 38.3214C29.1507 39.7792 30.26 40.904 31.6695 41.3134L31.6993 41.3205C34.347 42.0416 45.0158 42.0416 45.0158 42.0416C45.0158 42.0416 55.6534 42.0416 58.3323 41.3205C59.7702 40.904 60.8808 39.7792 61.2846 38.3512L61.2917 38.3214C61.7422 35.916 62 33.1478 62 30.3202C62 30.2168 62 30.1119 61.9986 30.0071C62 29.9108 62 29.796 62 29.6813C62 26.8522 61.7422 24.0841 61.2478 21.3996ZM41.6116 35.1722V24.8406L50.4883 30.0142L41.6116 35.1722Z" fill="#FF5055"/>
<path d="M28.6307 58.2415L25.9507 53.9015H27.4007L29.2907 57.1015L31.1507 53.9015H32.5507L29.8807 58.2415V61.0415H28.6307V58.2415ZM34.5471 61.1815C34.1338 61.1815 33.7638 61.1148 33.4371 60.9815C33.1171 60.8415 32.8438 60.6515 32.6171 60.4115C32.3971 60.1715 32.2271 59.8848 32.1071 59.5515C31.9938 59.2182 31.9371 58.8515 31.9371 58.4515C31.9371 58.0582 31.9938 57.6948 32.1071 57.3615C32.2271 57.0282 32.3971 56.7415 32.6171 56.5015C32.8438 56.2615 33.1171 56.0748 33.4371 55.9415C33.7638 55.8015 34.1338 55.7315 34.5471 55.7315C34.9605 55.7315 35.3271 55.8015 35.6471 55.9415C35.9738 56.0748 36.2471 56.2615 36.4671 56.5015C36.6938 56.7415 36.8638 57.0282 36.9771 57.3615C37.0971 57.6948 37.1571 58.0582 37.1571 58.4515C37.1571 58.8515 37.0971 59.2182 36.9771 59.5515C36.8638 59.8848 36.6938 60.1715 36.4671 60.4115C36.2471 60.6515 35.9738 60.8415 35.6471 60.9815C35.3271 61.1148 34.9605 61.1815 34.5471 61.1815ZM34.5471 60.2815C34.8005 60.2815 35.0205 60.2282 35.2071 60.1215C35.3938 60.0148 35.5471 59.8748 35.6671 59.7015C35.7871 59.5282 35.8738 59.3348 35.9271 59.1215C35.9871 58.9015 36.0171 58.6782 36.0171 58.4515C36.0171 58.2315 35.9871 58.0115 35.9271 57.7915C35.8738 57.5715 35.7871 57.3782 35.6671 57.2115C35.5471 57.0382 35.3938 56.8982 35.2071 56.7915C35.0205 56.6848 34.8005 56.6315 34.5471 56.6315C34.2938 56.6315 34.0738 56.6848 33.8871 56.7915C33.7005 56.8982 33.5471 57.0382 33.4271 57.2115C33.3071 57.3782 33.2171 57.5715 33.1571 57.7915C33.1038 58.0115 33.0771 58.2315 33.0771 58.4515C33.0771 58.6782 33.1038 58.9015 33.1571 59.1215C33.2171 59.3348 33.3071 59.5282 33.4271 59.7015C33.5471 59.8748 33.7005 60.0148 33.8871 60.1215C34.0738 60.2282 34.2938 60.2815 34.5471 60.2815ZM42.6449 61.0415H41.5249V60.3215H41.5049C41.3649 60.5815 41.1549 60.7915 40.8749 60.9515C40.6015 61.1048 40.3215 61.1815 40.0349 61.1815C39.3549 61.1815 38.8615 61.0148 38.5549 60.6815C38.2549 60.3415 38.1049 59.8315 38.1049 59.1515V55.8715H39.2449V59.0415C39.2449 59.4948 39.3315 59.8148 39.5049 60.0015C39.6782 60.1882 39.9215 60.2815 40.2349 60.2815C40.4749 60.2815 40.6749 60.2448 40.8349 60.1715C40.9949 60.0982 41.1249 60.0015 41.2249 59.8815C41.3249 59.7548 41.3949 59.6048 41.4349 59.4315C41.4815 59.2582 41.5049 59.0715 41.5049 58.8715V55.8715H42.6449V61.0415ZM43.3271 55.8715H44.1871V54.3215H45.3271V55.8715H46.3571V56.7215H45.3271V59.4815C45.3271 59.6015 45.3304 59.7048 45.3371 59.7915C45.3504 59.8782 45.3737 59.9515 45.4071 60.0115C45.4471 60.0715 45.5037 60.1182 45.5771 60.1515C45.6504 60.1782 45.7504 60.1915 45.8771 60.1915C45.9571 60.1915 46.0371 60.1915 46.1171 60.1915C46.1971 60.1848 46.2771 60.1715 46.3571 60.1515V61.0315C46.2304 61.0448 46.1071 61.0582 45.9871 61.0715C45.8671 61.0848 45.7437 61.0915 45.6171 61.0915C45.3171 61.0915 45.0737 61.0648 44.8871 61.0115C44.7071 60.9515 44.5637 60.8682 44.4571 60.7615C44.3571 60.6482 44.2871 60.5082 44.2471 60.3415C44.2137 60.1748 44.1937 59.9848 44.1871 59.7715V56.7215H43.3271V55.8715ZM51.7171 61.0415H50.5971V60.3215H50.5771C50.4371 60.5815 50.2271 60.7915 49.9471 60.9515C49.6738 61.1048 49.3938 61.1815 49.1071 61.1815C48.4271 61.1815 47.9338 61.0148 47.6271 60.6815C47.3271 60.3415 47.1771 59.8315 47.1771 59.1515V55.8715H48.3171V59.0415C48.3171 59.4948 48.4038 59.8148 48.5771 60.0015C48.7505 60.1882 48.9938 60.2815 49.3071 60.2815C49.5471 60.2815 49.7471 60.2448 49.9071 60.1715C50.0671 60.0982 50.1971 60.0015 50.2971 59.8815C50.3971 59.7548 50.4671 59.6048 50.5071 59.4315C50.5538 59.2582 50.5771 59.0715 50.5771 58.8715V55.8715H51.7171V61.0415ZM52.9493 53.9015H54.0893V56.5415H54.1093C54.1893 56.4148 54.286 56.3015 54.3993 56.2015C54.5127 56.1015 54.636 56.0182 54.7693 55.9515C54.9093 55.8782 55.0527 55.8248 55.1993 55.7915C55.3527 55.7515 55.5027 55.7315 55.6493 55.7315C56.056 55.7315 56.4093 55.8048 56.7093 55.9515C57.016 56.0915 57.2693 56.2882 57.4693 56.5415C57.6693 56.7882 57.8193 57.0782 57.9193 57.4115C58.0193 57.7448 58.0693 58.1015 58.0693 58.4815C58.0693 58.8282 58.0227 59.1648 57.9293 59.4915C57.8427 59.8182 57.706 60.1082 57.5193 60.3615C57.3393 60.6082 57.1093 60.8082 56.8293 60.9615C56.5493 61.1082 56.2193 61.1815 55.8393 61.1815C55.666 61.1815 55.4893 61.1682 55.3093 61.1415C55.136 61.1215 54.9693 61.0782 54.8093 61.0115C54.6493 60.9448 54.5027 60.8582 54.3693 60.7515C54.2427 60.6448 54.136 60.5048 54.0493 60.3315H54.0293V61.0415H52.9493V53.9015ZM56.9293 58.4615C56.9293 58.2282 56.8993 58.0015 56.8393 57.7815C56.7793 57.5615 56.6893 57.3682 56.5693 57.2015C56.4493 57.0282 56.2993 56.8915 56.1193 56.7915C55.9393 56.6848 55.7327 56.6315 55.4993 56.6315C55.0193 56.6315 54.656 56.7982 54.4093 57.1315C54.1693 57.4648 54.0493 57.9082 54.0493 58.4615C54.0493 58.7215 54.0793 58.9648 54.1393 59.1915C54.206 59.4115 54.3027 59.6015 54.4293 59.7615C54.556 59.9215 54.706 60.0482 54.8793 60.1415C55.0593 60.2348 55.266 60.2815 55.4993 60.2815C55.7593 60.2815 55.9793 60.2282 56.1593 60.1215C56.3393 60.0148 56.486 59.8782 56.5993 59.7115C56.7193 59.5382 56.8027 59.3448 56.8493 59.1315C56.9027 58.9115 56.9293 58.6882 56.9293 58.4615ZM62.5826 58.0015C62.5693 57.8215 62.5293 57.6482 62.4626 57.4815C62.4026 57.3148 62.316 57.1715 62.2026 57.0515C62.096 56.9248 61.9626 56.8248 61.8026 56.7515C61.6493 56.6715 61.476 56.6315 61.2826 56.6315C61.0826 56.6315 60.8993 56.6682 60.7326 56.7415C60.5726 56.8082 60.4326 56.9048 60.3126 57.0315C60.1993 57.1515 60.106 57.2948 60.0326 57.4615C59.966 57.6282 59.9293 57.8082 59.9226 58.0015H62.5826ZM59.9226 58.7515C59.9226 58.9515 59.9493 59.1448 60.0026 59.3315C60.0626 59.5182 60.1493 59.6815 60.2626 59.8215C60.376 59.9615 60.5193 60.0748 60.6926 60.1615C60.866 60.2415 61.0726 60.2815 61.3126 60.2815C61.646 60.2815 61.9126 60.2115 62.1126 60.0715C62.3193 59.9248 62.4726 59.7082 62.5726 59.4215H63.6526C63.5926 59.7015 63.4893 59.9515 63.3426 60.1715C63.196 60.3915 63.0193 60.5782 62.8126 60.7315C62.606 60.8782 62.3726 60.9882 62.1126 61.0615C61.8593 61.1415 61.5926 61.1815 61.3126 61.1815C60.906 61.1815 60.546 61.1148 60.2326 60.9815C59.9193 60.8482 59.6526 60.6615 59.4326 60.4215C59.2193 60.1815 59.056 59.8948 58.9426 59.5615C58.836 59.2282 58.7826 58.8615 58.7826 58.4615C58.7826 58.0948 58.8393 57.7482 58.9526 57.4215C59.0726 57.0882 59.2393 56.7982 59.4526 56.5515C59.6726 56.2982 59.936 56.0982 60.2426 55.9515C60.5493 55.8048 60.896 55.7315 61.2826 55.7315C61.6893 55.7315 62.0526 55.8182 62.3726 55.9915C62.6993 56.1582 62.9693 56.3815 63.1826 56.6615C63.396 56.9415 63.5493 57.2648 63.6426 57.6315C63.7426 57.9915 63.7693 58.3648 63.7226 58.7515H59.9226ZM35.68 64.9015H36.93V69.0615C36.93 69.3015 36.94 69.5448 36.96 69.7915C36.9867 70.0382 37.0533 70.2615 37.16 70.4615C37.2733 70.6548 37.44 70.8148 37.66 70.9415C37.8867 71.0682 38.2033 71.1315 38.61 71.1315C39.0167 71.1315 39.33 71.0682 39.55 70.9415C39.7767 70.8148 39.9433 70.6548 40.05 70.4615C40.1633 70.2615 40.23 70.0382 40.25 69.7915C40.2767 69.5448 40.29 69.3015 40.29 69.0615V64.9015H41.54V69.4715C41.54 69.9315 41.47 70.3315 41.33 70.6715C41.19 71.0115 40.99 71.2982 40.73 71.5315C40.4767 71.7582 40.17 71.9282 39.81 72.0415C39.45 72.1548 39.05 72.2115 38.61 72.2115C38.17 72.2115 37.77 72.1548 37.41 72.0415C37.05 71.9282 36.74 71.7582 36.48 71.5315C36.2267 71.2982 36.03 71.0115 35.89 70.6715C35.75 70.3315 35.68 69.9315 35.68 69.4715V64.9015ZM42.9768 64.9015H46.3868C47.1735 64.9015 47.7635 65.0715 48.1568 65.4115C48.5501 65.7515 48.7468 66.2248 48.7468 66.8315C48.7468 67.1715 48.6968 67.4548 48.5968 67.6815C48.4968 67.9015 48.3801 68.0815 48.2468 68.2215C48.1135 68.3548 47.9801 68.4515 47.8468 68.5115C47.7201 68.5715 47.6268 68.6115 47.5668 68.6315V68.6515C47.6735 68.6648 47.7868 68.6982 47.9068 68.7515C48.0335 68.8048 48.1501 68.8915 48.2568 69.0115C48.3635 69.1248 48.4501 69.2748 48.5168 69.4615C48.5901 69.6482 48.6268 69.8815 48.6268 70.1615C48.6268 70.5815 48.6568 70.9648 48.7168 71.3115C48.7835 71.6515 48.8835 71.8948 49.0168 72.0415H47.6768C47.5835 71.8882 47.5268 71.7182 47.5068 71.5315C47.4935 71.3448 47.4868 71.1648 47.4868 70.9915C47.4868 70.6648 47.4668 70.3848 47.4268 70.1515C47.3868 69.9115 47.3135 69.7148 47.2068 69.5615C47.1001 69.4015 46.9535 69.2848 46.7668 69.2115C46.5868 69.1382 46.3535 69.1015 46.0668 69.1015H44.2268V72.0415H42.9768V64.9015ZM44.2268 68.1515H46.2768C46.6768 68.1515 46.9801 68.0582 47.1868 67.8715C47.3935 67.6782 47.4968 67.3915 47.4968 67.0115C47.4968 66.7848 47.4635 66.6015 47.3968 66.4615C47.3301 66.3148 47.2368 66.2015 47.1168 66.1215C47.0035 66.0415 46.8701 65.9882 46.7168 65.9615C46.5701 65.9348 46.4168 65.9215 46.2568 65.9215H44.2268V68.1515ZM50.0178 64.9015H51.2678V70.9615H54.8978V72.0415H50.0178V64.9015Z" fill="#FF5055"/>
</svg>
