<svg width="90" height="90" viewBox="0 0 90 90" fill="none" xmlns="http://www.w3.org/2000/svg">
<rect width="90" height="90" rx="45" fill="#262626"/>
<g clip-path="url(#clip0_1_2843)">
<path d="M45.0013 31.8428C43.8902 31.8428 42.9457 31.4539 42.168 30.6761C41.3902 29.8983 41.0013 28.9539 41.0013 27.8428V19.8428C41.0013 18.7317 41.3902 17.7872 42.168 17.0094C42.9457 16.2317 43.8902 15.8428 45.0013 15.8428C46.1124 15.8428 47.0569 16.2317 47.8346 17.0094C48.6124 17.7872 49.0013 18.7317 49.0013 19.8428V27.8428C49.0013 28.9539 48.6124 29.8983 47.8346 30.6761C47.0569 31.4539 46.1124 31.8428 45.0013 31.8428ZM43.668 41.1761V37.0761C41.3569 36.765 39.4457 35.7317 37.9346 33.9761C36.4235 32.2206 35.668 30.1761 35.668 27.8428H38.3346C38.3346 29.6872 38.9846 31.2594 40.2846 32.5594C41.5846 33.8594 43.1569 34.5094 45.0013 34.5094C46.8457 34.5094 48.418 33.8594 49.718 32.5594C51.018 31.2594 51.668 29.6872 51.668 27.8428H54.3346C54.3346 30.1761 53.5791 32.2206 52.068 33.9761C50.5569 35.7317 48.6457 36.765 46.3346 37.0761V41.1761H43.668Z" fill="#794FD3"/>
</g>
<path d="M36.3118 50.3307H37.5618V56.3907H41.1918V57.4707H36.3118V50.3307ZM41.9239 50.3307H43.0639V51.4107H41.9239V50.3307ZM41.9239 52.3007H43.0639V57.4707H41.9239V52.3007ZM43.7961 52.3007H45.0361L46.3461 56.2707H46.3661L47.6261 52.3007H48.8061L46.9561 57.4707H45.6761L43.7961 52.3007ZM53.0416 54.4307C53.0283 54.2507 52.9883 54.0774 52.9216 53.9107C52.8616 53.744 52.7749 53.6007 52.6616 53.4807C52.5549 53.354 52.4216 53.254 52.2616 53.1807C52.1083 53.1007 51.9349 53.0607 51.7416 53.0607C51.5416 53.0607 51.3583 53.0974 51.1916 53.1707C51.0316 53.2374 50.8916 53.334 50.7716 53.4607C50.6583 53.5807 50.5649 53.724 50.4916 53.8907C50.4249 54.0574 50.3883 54.2374 50.3816 54.4307H53.0416ZM50.3816 55.1807C50.3816 55.3807 50.4083 55.574 50.4616 55.7607C50.5216 55.9474 50.6083 56.1107 50.7216 56.2507C50.8349 56.3907 50.9783 56.504 51.1516 56.5907C51.3249 56.6707 51.5316 56.7107 51.7716 56.7107C52.1049 56.7107 52.3716 56.6407 52.5716 56.5007C52.7783 56.354 52.9316 56.1374 53.0316 55.8507H54.1116C54.0516 56.1307 53.9483 56.3807 53.8016 56.6007C53.6549 56.8207 53.4783 57.0074 53.2716 57.1607C53.0649 57.3074 52.8316 57.4174 52.5716 57.4907C52.3183 57.5707 52.0516 57.6107 51.7716 57.6107C51.3649 57.6107 51.0049 57.544 50.6916 57.4107C50.3783 57.2774 50.1116 57.0907 49.8916 56.8507C49.6783 56.6107 49.5149 56.324 49.4016 55.9907C49.2949 55.6574 49.2416 55.2907 49.2416 54.8907C49.2416 54.524 49.2983 54.1774 49.4116 53.8507C49.5316 53.5174 49.6983 53.2274 49.9116 52.9807C50.1316 52.7274 50.3949 52.5274 50.7016 52.3807C51.0083 52.234 51.3549 52.1607 51.7416 52.1607C52.1483 52.1607 52.5116 52.2474 52.8316 52.4207C53.1583 52.5874 53.4283 52.8107 53.6416 53.0907C53.8549 53.3707 54.0083 53.694 54.1016 54.0607C54.2016 54.4207 54.2283 54.794 54.1816 55.1807H50.3816ZM27.884 61.3307H31.294C32.0807 61.3307 32.6707 61.5007 33.064 61.8407C33.4574 62.1807 33.654 62.654 33.654 63.2607C33.654 63.6007 33.604 63.884 33.504 64.1107C33.404 64.3307 33.2874 64.5107 33.154 64.6507C33.0207 64.784 32.8874 64.8807 32.754 64.9407C32.6274 65.0007 32.534 65.0407 32.474 65.0607V65.0807C32.5807 65.094 32.694 65.1274 32.814 65.1807C32.9407 65.234 33.0574 65.3207 33.164 65.4407C33.2707 65.554 33.3574 65.704 33.424 65.8907C33.4974 66.0774 33.534 66.3107 33.534 66.5907C33.534 67.0107 33.564 67.394 33.624 67.7407C33.6907 68.0807 33.7907 68.324 33.924 68.4707H32.584C32.4907 68.3174 32.434 68.1474 32.414 67.9607C32.4007 67.774 32.394 67.594 32.394 67.4207C32.394 67.094 32.374 66.814 32.334 66.5807C32.294 66.3407 32.2207 66.144 32.114 65.9907C32.0074 65.8307 31.8607 65.714 31.674 65.6407C31.494 65.5674 31.2607 65.5307 30.974 65.5307H29.134V68.4707H27.884V61.3307ZM29.134 64.5807H31.184C31.584 64.5807 31.8874 64.4874 32.094 64.3007C32.3007 64.1074 32.404 63.8207 32.404 63.4407C32.404 63.214 32.3707 63.0307 32.304 62.8907C32.2374 62.744 32.144 62.6307 32.024 62.5507C31.9107 62.4707 31.7774 62.4174 31.624 62.3907C31.4774 62.364 31.324 62.3507 31.164 62.3507H29.134V64.5807ZM38.315 65.4307C38.3017 65.2507 38.2617 65.0774 38.195 64.9107C38.135 64.744 38.0484 64.6007 37.935 64.4807C37.8284 64.354 37.695 64.254 37.535 64.1807C37.3817 64.1007 37.2084 64.0607 37.015 64.0607C36.815 64.0607 36.6317 64.0974 36.465 64.1707C36.305 64.2374 36.165 64.334 36.045 64.4607C35.9317 64.5807 35.8384 64.724 35.765 64.8907C35.6984 65.0574 35.6617 65.2374 35.655 65.4307H38.315ZM35.655 66.1807C35.655 66.3807 35.6817 66.574 35.735 66.7607C35.795 66.9474 35.8817 67.1107 35.995 67.2507C36.1084 67.3907 36.2517 67.504 36.425 67.5907C36.5984 67.6707 36.805 67.7107 37.045 67.7107C37.3784 67.7107 37.645 67.6407 37.845 67.5007C38.0517 67.354 38.205 67.1374 38.305 66.8507H39.385C39.325 67.1307 39.2217 67.3807 39.075 67.6007C38.9284 67.8207 38.7517 68.0074 38.545 68.1607C38.3384 68.3074 38.105 68.4174 37.845 68.4907C37.5917 68.5707 37.325 68.6107 37.045 68.6107C36.6384 68.6107 36.2784 68.544 35.965 68.4107C35.6517 68.2774 35.385 68.0907 35.165 67.8507C34.9517 67.6107 34.7884 67.324 34.675 66.9907C34.5684 66.6574 34.515 66.2907 34.515 65.8907C34.515 65.524 34.5717 65.1774 34.685 64.8507C34.805 64.5174 34.9717 64.2274 35.185 63.9807C35.405 63.7274 35.6684 63.5274 35.975 63.3807C36.2817 63.234 36.6284 63.1607 37.015 63.1607C37.4217 63.1607 37.785 63.2474 38.105 63.4207C38.4317 63.5874 38.7017 63.8107 38.915 64.0907C39.1284 64.3707 39.2817 64.694 39.375 65.0607C39.475 65.4207 39.5017 65.794 39.455 66.1807H35.655ZM43.8117 65.0307C43.765 64.7107 43.635 64.4707 43.4217 64.3107C43.215 64.144 42.9517 64.0607 42.6317 64.0607C42.485 64.0607 42.3283 64.0874 42.1617 64.1407C41.995 64.1874 41.8417 64.2807 41.7017 64.4207C41.5617 64.554 41.445 64.744 41.3517 64.9907C41.2583 65.2307 41.2117 65.5474 41.2117 65.9407C41.2117 66.154 41.235 66.3674 41.2817 66.5807C41.335 66.794 41.415 66.984 41.5217 67.1507C41.635 67.3174 41.7783 67.454 41.9517 67.5607C42.125 67.6607 42.335 67.7107 42.5817 67.7107C42.915 67.7107 43.1883 67.6074 43.4017 67.4007C43.6217 67.194 43.7583 66.904 43.8117 66.5307H44.9517C44.845 67.204 44.5883 67.7207 44.1817 68.0807C43.7817 68.434 43.2483 68.6107 42.5817 68.6107C42.175 68.6107 41.815 68.544 41.5017 68.4107C41.195 68.2707 40.935 68.084 40.7217 67.8507C40.5083 67.6107 40.345 67.3274 40.2317 67.0007C40.125 66.674 40.0717 66.3207 40.0717 65.9407C40.0717 65.554 40.125 65.1907 40.2317 64.8507C40.3383 64.5107 40.4983 64.2174 40.7117 63.9707C40.925 63.7174 41.1883 63.5207 41.5017 63.3807C41.8217 63.234 42.195 63.1607 42.6217 63.1607C42.9217 63.1607 43.205 63.2007 43.4717 63.2807C43.745 63.354 43.985 63.4674 44.1917 63.6207C44.405 63.774 44.5783 63.9674 44.7117 64.2007C44.845 64.434 44.925 64.7107 44.9517 65.0307H43.8117ZM48.2483 68.6107C47.835 68.6107 47.465 68.544 47.1383 68.4107C46.8183 68.2707 46.545 68.0807 46.3183 67.8407C46.0983 67.6007 45.9283 67.314 45.8083 66.9807C45.695 66.6474 45.6383 66.2807 45.6383 65.8807C45.6383 65.4874 45.695 65.124 45.8083 64.7907C45.9283 64.4574 46.0983 64.1707 46.3183 63.9307C46.545 63.6907 46.8183 63.504 47.1383 63.3707C47.465 63.2307 47.835 63.1607 48.2483 63.1607C48.6617 63.1607 49.0283 63.2307 49.3483 63.3707C49.675 63.504 49.9483 63.6907 50.1683 63.9307C50.395 64.1707 50.565 64.4574 50.6783 64.7907C50.7983 65.124 50.8583 65.4874 50.8583 65.8807C50.8583 66.2807 50.7983 66.6474 50.6783 66.9807C50.565 67.314 50.395 67.6007 50.1683 67.8407C49.9483 68.0807 49.675 68.2707 49.3483 68.4107C49.0283 68.544 48.6617 68.6107 48.2483 68.6107ZM48.2483 67.7107C48.5017 67.7107 48.7217 67.6574 48.9083 67.5507C49.095 67.444 49.2483 67.304 49.3683 67.1307C49.4883 66.9574 49.575 66.764 49.6283 66.5507C49.6883 66.3307 49.7183 66.1074 49.7183 65.8807C49.7183 65.6607 49.6883 65.4407 49.6283 65.2207C49.575 65.0007 49.4883 64.8074 49.3683 64.6407C49.2483 64.4674 49.095 64.3274 48.9083 64.2207C48.7217 64.114 48.5017 64.0607 48.2483 64.0607C47.995 64.0607 47.775 64.114 47.5883 64.2207C47.4017 64.3274 47.2483 64.4674 47.1283 64.6407C47.0083 64.8074 46.9183 65.0007 46.8583 65.2207C46.805 65.4407 46.7783 65.6607 46.7783 65.8807C46.7783 66.1074 46.805 66.3307 46.8583 66.5507C46.9183 66.764 47.0083 66.9574 47.1283 67.1307C47.2483 67.304 47.4017 67.444 47.5883 67.5507C47.775 67.6574 47.995 67.7107 48.2483 67.7107ZM56.6761 68.4707H55.5961V67.7707H55.5761C55.4227 68.0707 55.1994 68.2874 54.9061 68.4207C54.6127 68.5474 54.3027 68.6107 53.9761 68.6107C53.5694 68.6107 53.2127 68.5407 52.9061 68.4007C52.6061 68.254 52.3561 68.0574 52.1561 67.8107C51.9561 67.564 51.8061 67.274 51.7061 66.9407C51.6061 66.6007 51.5561 66.2374 51.5561 65.8507C51.5561 65.384 51.6194 64.9807 51.7461 64.6407C51.8727 64.3007 52.0394 64.0207 52.2461 63.8007C52.4594 63.5807 52.6994 63.4207 52.9661 63.3207C53.2394 63.214 53.5161 63.1607 53.7961 63.1607C53.9561 63.1607 54.1194 63.1774 54.2861 63.2107C54.4527 63.2374 54.6127 63.284 54.7661 63.3507C54.9194 63.4174 55.0594 63.504 55.1861 63.6107C55.3194 63.7107 55.4294 63.8307 55.5161 63.9707H55.5361V61.3307H56.6761V68.4707ZM52.6961 65.9407C52.6961 66.1607 52.7227 66.3774 52.7761 66.5907C52.8361 66.804 52.9227 66.994 53.0361 67.1607C53.1561 67.3274 53.3061 67.4607 53.4861 67.5607C53.6661 67.6607 53.8794 67.7107 54.1261 67.7107C54.3794 67.7107 54.5961 67.6574 54.7761 67.5507C54.9627 67.444 55.1127 67.304 55.2261 67.1307C55.3461 66.9574 55.4327 66.764 55.4861 66.5507C55.5461 66.3307 55.5761 66.1074 55.5761 65.8807C55.5761 65.3074 55.4461 64.8607 55.1861 64.5407C54.9327 64.2207 54.5861 64.0607 54.1461 64.0607C53.8794 64.0607 53.6527 64.1174 53.4661 64.2307C53.2861 64.3374 53.1361 64.4807 53.0161 64.6607C52.9027 64.834 52.8194 65.034 52.7661 65.2607C52.7194 65.4807 52.6961 65.7074 52.6961 65.9407ZM61.4693 65.4307C61.456 65.2507 61.416 65.0774 61.3493 64.9107C61.2893 64.744 61.2027 64.6007 61.0893 64.4807C60.9827 64.354 60.8493 64.254 60.6893 64.1807C60.536 64.1007 60.3627 64.0607 60.1693 64.0607C59.9693 64.0607 59.786 64.0974 59.6193 64.1707C59.4593 64.2374 59.3193 64.334 59.1993 64.4607C59.086 64.5807 58.9927 64.724 58.9193 64.8907C58.8527 65.0574 58.816 65.2374 58.8093 65.4307H61.4693ZM58.8093 66.1807C58.8093 66.3807 58.836 66.574 58.8893 66.7607C58.9493 66.9474 59.036 67.1107 59.1493 67.2507C59.2627 67.3907 59.406 67.504 59.5793 67.5907C59.7527 67.6707 59.9593 67.7107 60.1993 67.7107C60.5327 67.7107 60.7993 67.6407 60.9993 67.5007C61.206 67.354 61.3593 67.1374 61.4593 66.8507H62.5393C62.4793 67.1307 62.376 67.3807 62.2293 67.6007C62.0827 67.8207 61.906 68.0074 61.6993 68.1607C61.4927 68.3074 61.2593 68.4174 60.9993 68.4907C60.746 68.5707 60.4793 68.6107 60.1993 68.6107C59.7927 68.6107 59.4327 68.544 59.1193 68.4107C58.806 68.2774 58.5393 68.0907 58.3193 67.8507C58.106 67.6107 57.9427 67.324 57.8293 66.9907C57.7227 66.6574 57.6693 66.2907 57.6693 65.8907C57.6693 65.524 57.726 65.1774 57.8393 64.8507C57.9593 64.5174 58.126 64.2274 58.3393 63.9807C58.5593 63.7274 58.8227 63.5274 59.1293 63.3807C59.436 63.234 59.7827 63.1607 60.1693 63.1607C60.576 63.1607 60.9393 63.2474 61.2593 63.4207C61.586 63.5874 61.856 63.8107 62.0693 64.0907C62.2827 64.3707 62.436 64.694 62.5293 65.0607C62.6293 65.4207 62.656 65.794 62.6093 66.1807H58.8093Z" fill="#794FD3"/>
<defs>
<clipPath id="clip0_1_2843">
<rect width="32" height="24.4706" fill="white" transform="translate(29 16)"/>
</clipPath>
</defs>
</svg>
