<svg width="90" height="90" viewBox="0 0 90 90" fill="none" xmlns="http://www.w3.org/2000/svg">
<rect width="90" height="90" rx="45" fill="#F5FFF1"/>
<path d="M59 25.4491V39.808C59 42.1486 57.4923 44.1157 55.4103 44.8624V31.1927C55.4103 27.0429 52.0215 23.6542 47.8718 23.6542H37.0738C37.8205 21.5721 39.7877 20.0645 42.1282 20.0645H53.6154C56.5877 20.0645 59 22.4768 59 25.4491ZM40.6923 30.1157H43.5641C44.5549 30.1157 45.359 29.3116 45.359 28.3209V25.808H38.8974V28.3209C38.8974 29.3116 39.7015 30.1157 40.6923 30.1157ZM53.2564 31.1927V45.5516C53.2564 48.5239 50.8441 50.9362 47.8718 50.9362H36.3846C33.4123 50.9362 31 48.5239 31 45.5516V31.1927C31 28.2204 33.4123 25.808 36.3846 25.808H36.7436V28.3209C36.7436 30.5034 38.5097 32.2696 40.6923 32.2696H43.5641C45.7467 32.2696 47.5128 30.5034 47.5128 28.3209V25.808H47.8718C50.8441 25.808 53.2564 28.2204 53.2564 31.1927ZM47.5128 44.1157C47.5128 43.527 47.0246 43.0388 46.4359 43.0388H37.8205C37.2318 43.0388 36.7436 43.527 36.7436 44.1157C36.7436 44.7045 37.2318 45.1927 37.8205 45.1927H46.4359C47.0246 45.1927 47.5128 44.7045 47.5128 44.1157ZM47.5128 38.3721C47.5128 37.7834 47.0246 37.2952 46.4359 37.2952H37.8205C37.2318 37.2952 36.7436 37.7834 36.7436 38.3721C36.7436 38.9609 37.2318 39.4491 37.8205 39.4491H46.4359C47.0246 39.4491 47.5128 38.9609 47.5128 38.3721Z" fill="#67DD3A"/>
<path d="M21.6829 62.7965H24.8329C25.3395 62.7965 25.7529 62.8699 26.0729 63.0165C26.3929 63.1632 26.6395 63.3465 26.8129 63.5665C26.9862 63.7865 27.1029 64.0265 27.1629 64.2865C27.2295 64.5465 27.2629 64.7865 27.2629 65.0065C27.2629 65.2265 27.2295 65.4665 27.1629 65.7265C27.1029 65.9799 26.9862 66.2165 26.8129 66.4365C26.6395 66.6565 26.3929 66.8399 26.0729 66.9865C25.7529 67.1265 25.3395 67.1965 24.8329 67.1965H22.9329V69.9365H21.6829V62.7965ZM22.9329 66.1765H24.7629C24.9029 66.1765 25.0462 66.1565 25.1929 66.1165C25.3395 66.0765 25.4729 66.0132 25.5929 65.9265C25.7195 65.8332 25.8195 65.7132 25.8929 65.5665C25.9729 65.4132 26.0129 65.2232 26.0129 64.9965C26.0129 64.7632 25.9795 64.5699 25.9129 64.4165C25.8462 64.2632 25.7562 64.1432 25.6429 64.0565C25.5295 63.9632 25.3995 63.8999 25.2529 63.8665C25.1062 63.8332 24.9495 63.8165 24.7829 63.8165H22.9329V66.1765ZM32.5228 68.7865C32.5228 68.9265 32.5394 69.0265 32.5728 69.0865C32.6128 69.1465 32.6861 69.1765 32.7928 69.1765C32.8261 69.1765 32.8661 69.1765 32.9128 69.1765C32.9594 69.1765 33.0128 69.1699 33.0728 69.1565V69.9465C33.0328 69.9599 32.9794 69.9732 32.9128 69.9865C32.8528 70.0065 32.7894 70.0232 32.7228 70.0365C32.6561 70.0499 32.5894 70.0599 32.5228 70.0665C32.4561 70.0732 32.3994 70.0765 32.3528 70.0765C32.1194 70.0765 31.9261 70.0299 31.7728 69.9365C31.6194 69.8432 31.5194 69.6799 31.4728 69.4465C31.2461 69.6665 30.9661 69.8265 30.6328 69.9265C30.3061 70.0265 29.9894 70.0765 29.6828 70.0765C29.4494 70.0765 29.2261 70.0432 29.0128 69.9765C28.7994 69.9165 28.6094 69.8265 28.4428 69.7065C28.2828 69.5799 28.1528 69.4232 28.0528 69.2365C27.9594 69.0432 27.9128 68.8199 27.9128 68.5665C27.9128 68.2465 27.9694 67.9865 28.0828 67.7865C28.2028 67.5865 28.3561 67.4299 28.5428 67.3165C28.7361 67.2032 28.9494 67.1232 29.1828 67.0765C29.4228 67.0232 29.6628 66.9832 29.9028 66.9565C30.1094 66.9165 30.3061 66.8899 30.4928 66.8765C30.6794 66.8565 30.8428 66.8265 30.9828 66.7865C31.1294 66.7465 31.2428 66.6865 31.3228 66.6065C31.4094 66.5199 31.4528 66.3932 31.4528 66.2265C31.4528 66.0799 31.4161 65.9599 31.3428 65.8665C31.2761 65.7732 31.1894 65.7032 31.0828 65.6565C30.9828 65.6032 30.8694 65.5699 30.7428 65.5565C30.6161 65.5365 30.4961 65.5265 30.3828 65.5265C30.0628 65.5265 29.7994 65.5932 29.5928 65.7265C29.3861 65.8599 29.2694 66.0665 29.2428 66.3465H28.1028C28.1228 66.0132 28.2028 65.7365 28.3428 65.5165C28.4828 65.2965 28.6594 65.1199 28.8728 64.9865C29.0928 64.8532 29.3394 64.7599 29.6128 64.7065C29.8861 64.6532 30.1661 64.6265 30.4528 64.6265C30.7061 64.6265 30.9561 64.6532 31.2028 64.7065C31.4494 64.7599 31.6694 64.8465 31.8628 64.9665C32.0628 65.0865 32.2228 65.2432 32.3428 65.4365C32.4628 65.6232 32.5228 65.8532 32.5228 66.1265V68.7865ZM31.3828 67.3465C31.2094 67.4599 30.9961 67.5299 30.7428 67.5565C30.4894 67.5765 30.2361 67.6099 29.9828 67.6565C29.8628 67.6765 29.7461 67.7065 29.6328 67.7465C29.5194 67.7799 29.4194 67.8299 29.3328 67.8965C29.2461 67.9565 29.1761 68.0399 29.1228 68.1465C29.0761 68.2465 29.0528 68.3699 29.0528 68.5165C29.0528 68.6432 29.0894 68.7499 29.1628 68.8365C29.2361 68.9232 29.3228 68.9932 29.4228 69.0465C29.5294 69.0932 29.6428 69.1265 29.7628 69.1465C29.8894 69.1665 30.0028 69.1765 30.1028 69.1765C30.2294 69.1765 30.3661 69.1599 30.5128 69.1265C30.6594 69.0932 30.7961 69.0365 30.9228 68.9565C31.0561 68.8765 31.1661 68.7765 31.2528 68.6565C31.3394 68.5299 31.3828 68.3765 31.3828 68.1965V67.3465ZM34.6094 68.2765C34.6427 68.6099 34.7694 68.8432 34.9894 68.9765C35.2094 69.1099 35.4727 69.1765 35.7794 69.1765C35.8861 69.1765 36.0061 69.1699 36.1394 69.1565C36.2794 69.1365 36.4094 69.1032 36.5294 69.0565C36.6494 69.0099 36.7461 68.9432 36.8194 68.8565C36.8994 68.7632 36.9361 68.6432 36.9294 68.4965C36.9227 68.3499 36.8694 68.2299 36.7694 68.1365C36.6694 68.0432 36.5394 67.9699 36.3794 67.9165C36.2261 67.8565 36.0494 67.8065 35.8494 67.7665C35.6494 67.7265 35.4461 67.6832 35.2394 67.6365C35.0261 67.5899 34.8194 67.5332 34.6194 67.4665C34.4261 67.3999 34.2494 67.3099 34.0894 67.1965C33.9361 67.0832 33.8127 66.9399 33.7194 66.7665C33.6261 66.5865 33.5794 66.3665 33.5794 66.1065C33.5794 65.8265 33.6461 65.5932 33.7794 65.4065C33.9194 65.2132 34.0927 65.0599 34.2994 64.9465C34.5127 64.8265 34.7461 64.7432 34.9994 64.6965C35.2594 64.6499 35.5061 64.6265 35.7394 64.6265C36.0061 64.6265 36.2594 64.6565 36.4994 64.7165C36.7461 64.7699 36.9661 64.8599 37.1594 64.9865C37.3594 65.1132 37.5227 65.2799 37.6494 65.4865C37.7827 65.6865 37.8661 65.9299 37.8994 66.2165H36.7094C36.6561 65.9432 36.5294 65.7599 36.3294 65.6665C36.1361 65.5732 35.9127 65.5265 35.6594 65.5265C35.5794 65.5265 35.4827 65.5332 35.3694 65.5465C35.2627 65.5599 35.1594 65.5865 35.0594 65.6265C34.9661 65.6599 34.8861 65.7132 34.8194 65.7865C34.7527 65.8532 34.7194 65.9432 34.7194 66.0565C34.7194 66.1965 34.7661 66.3099 34.8594 66.3965C34.9594 66.4832 35.0861 66.5565 35.2394 66.6165C35.3994 66.6699 35.5794 66.7165 35.7794 66.7565C35.9794 66.7965 36.1861 66.8399 36.3994 66.8865C36.6061 66.9332 36.8094 66.9899 37.0094 67.0565C37.2094 67.1232 37.3861 67.2132 37.5394 67.3265C37.6994 67.4399 37.8261 67.5832 37.9194 67.7565C38.0194 67.9299 38.0694 68.1432 38.0694 68.3965C38.0694 68.7032 37.9994 68.9632 37.8594 69.1765C37.7194 69.3899 37.5361 69.5632 37.3094 69.6965C37.0894 69.8299 36.8427 69.9265 36.5694 69.9865C36.2961 70.0465 36.0261 70.0765 35.7594 70.0765C35.4327 70.0765 35.1294 70.0399 34.8494 69.9665C34.5761 69.8932 34.3361 69.7832 34.1294 69.6365C33.9294 69.4832 33.7694 69.2965 33.6494 69.0765C33.5361 68.8499 33.4761 68.5832 33.4694 68.2765H34.6094ZM38.415 64.7665H39.275V63.2165H40.415V64.7665H41.445V65.6165H40.415V68.3765C40.415 68.4965 40.4183 68.5999 40.425 68.6865C40.4383 68.7732 40.4616 68.8465 40.495 68.9065C40.535 68.9665 40.5916 69.0132 40.665 69.0465C40.7383 69.0732 40.8383 69.0865 40.965 69.0865C41.045 69.0865 41.125 69.0865 41.205 69.0865C41.285 69.0799 41.365 69.0665 41.445 69.0465V69.9265C41.3183 69.9399 41.195 69.9532 41.075 69.9665C40.955 69.9799 40.8316 69.9865 40.705 69.9865C40.405 69.9865 40.1616 69.9599 39.975 69.9065C39.795 69.8465 39.6516 69.7632 39.545 69.6565C39.445 69.5432 39.375 69.4032 39.335 69.2365C39.3016 69.0699 39.2816 68.8799 39.275 68.6665V65.6165H38.415V64.7665ZM45.815 66.8965C45.8017 66.7165 45.7617 66.5432 45.695 66.3765C45.635 66.2099 45.5484 66.0665 45.435 65.9465C45.3284 65.8199 45.195 65.7199 45.035 65.6465C44.8817 65.5665 44.7084 65.5265 44.515 65.5265C44.315 65.5265 44.1317 65.5632 43.965 65.6365C43.805 65.7032 43.665 65.7999 43.545 65.9265C43.4317 66.0465 43.3384 66.1899 43.265 66.3565C43.1984 66.5232 43.1617 66.7032 43.155 66.8965H45.815ZM43.155 67.6465C43.155 67.8465 43.1817 68.0399 43.235 68.2265C43.295 68.4132 43.3817 68.5765 43.495 68.7165C43.6084 68.8565 43.7517 68.9699 43.925 69.0565C44.0984 69.1365 44.305 69.1765 44.545 69.1765C44.8784 69.1765 45.145 69.1065 45.345 68.9665C45.5517 68.8199 45.705 68.6032 45.805 68.3165H46.885C46.825 68.5965 46.7217 68.8465 46.575 69.0665C46.4284 69.2865 46.2517 69.4732 46.045 69.6265C45.8384 69.7732 45.605 69.8832 45.345 69.9565C45.0917 70.0365 44.825 70.0765 44.545 70.0765C44.1384 70.0765 43.7784 70.0099 43.465 69.8765C43.1517 69.7432 42.885 69.5565 42.665 69.3165C42.4517 69.0765 42.2884 68.7899 42.175 68.4565C42.0684 68.1232 42.015 67.7565 42.015 67.3565C42.015 66.9899 42.0717 66.6432 42.185 66.3165C42.305 65.9832 42.4717 65.6932 42.685 65.4465C42.905 65.1932 43.1684 64.9932 43.475 64.8465C43.7817 64.6999 44.1284 64.6265 44.515 64.6265C44.9217 64.6265 45.285 64.7132 45.605 64.8865C45.9317 65.0532 46.2017 65.2765 46.415 65.5565C46.6284 65.8365 46.7817 66.1599 46.875 66.5265C46.975 66.8865 47.0017 67.2599 46.955 67.6465H43.155ZM50.0849 62.7965H55.8649V63.8765H53.5949V69.9365H52.3449V63.8765H50.0849V62.7965ZM58.9693 66.8965C58.956 66.7165 58.916 66.5432 58.8493 66.3765C58.7893 66.2099 58.7027 66.0665 58.5893 65.9465C58.4827 65.8199 58.3493 65.7199 58.1893 65.6465C58.036 65.5665 57.8627 65.5265 57.6693 65.5265C57.4693 65.5265 57.286 65.5632 57.1193 65.6365C56.9593 65.7032 56.8193 65.7999 56.6993 65.9265C56.586 66.0465 56.4927 66.1899 56.4193 66.3565C56.3527 66.5232 56.316 66.7032 56.3093 66.8965H58.9693ZM56.3093 67.6465C56.3093 67.8465 56.336 68.0399 56.3893 68.2265C56.4493 68.4132 56.536 68.5765 56.6493 68.7165C56.7627 68.8565 56.906 68.9699 57.0793 69.0565C57.2527 69.1365 57.4593 69.1765 57.6993 69.1765C58.0327 69.1765 58.2993 69.1065 58.4993 68.9665C58.706 68.8199 58.8593 68.6032 58.9593 68.3165H60.0393C59.9793 68.5965 59.876 68.8465 59.7293 69.0665C59.5827 69.2865 59.406 69.4732 59.1993 69.6265C58.9927 69.7732 58.7593 69.8832 58.4993 69.9565C58.246 70.0365 57.9793 70.0765 57.6993 70.0765C57.2927 70.0765 56.9327 70.0099 56.6193 69.8765C56.306 69.7432 56.0393 69.5565 55.8193 69.3165C55.606 69.0765 55.4427 68.7899 55.3293 68.4565C55.2227 68.1232 55.1693 67.7565 55.1693 67.3565C55.1693 66.9899 55.226 66.6432 55.3393 66.3165C55.4593 65.9832 55.626 65.6932 55.8393 65.4465C56.0593 65.1932 56.3227 64.9932 56.6293 64.8465C56.936 64.6999 57.2827 64.6265 57.6693 64.6265C58.076 64.6265 58.4393 64.7132 58.7593 64.8865C59.086 65.0532 59.356 65.2765 59.5693 65.5565C59.7827 65.8365 59.936 66.1599 60.0293 66.5265C60.1293 66.8865 60.156 67.2599 60.1093 67.6465H56.3093ZM62.366 67.2165L60.576 64.7665H61.956L63.036 66.3565L64.166 64.7665H65.486L63.726 67.1565L65.706 69.9365H64.336L63.026 68.0265L61.756 69.9365H60.416L62.366 67.2165ZM65.8271 64.7665H66.6871V63.2165H67.8271V64.7665H68.8571V65.6165H67.8271V68.3765C67.8271 68.4965 67.8304 68.5999 67.8371 68.6865C67.8504 68.7732 67.8737 68.8465 67.9071 68.9065C67.9471 68.9665 68.0037 69.0132 68.0771 69.0465C68.1504 69.0732 68.2504 69.0865 68.3771 69.0865C68.4571 69.0865 68.5371 69.0865 68.6171 69.0865C68.6971 69.0799 68.7771 69.0665 68.8571 69.0465V69.9265C68.7304 69.9399 68.6071 69.9532 68.4871 69.9665C68.3671 69.9799 68.2437 69.9865 68.1171 69.9865C67.8171 69.9865 67.5737 69.9599 67.3871 69.9065C67.2071 69.8465 67.0637 69.7632 66.9571 69.6565C66.8571 69.5432 66.7871 69.4032 66.7471 69.2365C66.7137 69.0699 66.6937 68.8799 66.6871 68.6665V65.6165H65.8271V64.7665Z" fill="#67DD3A"/>
</svg>
