<svg width="90" height="90" viewBox="0 0 90 90" fill="none" xmlns="http://www.w3.org/2000/svg">
<rect width="90" height="90" rx="45" fill="#FFEFF0"/>
<path d="M61.2478 21.3991L61.2903 21.6767C60.8794 20.219 59.7702 19.0942 58.3606 18.6848L58.3309 18.6777C55.6803 17.958 45.0144 17.958 45.0144 17.958C45.0144 17.958 34.3753 17.9439 31.6979 18.6777C30.2614 19.0942 29.1507 20.219 28.747 21.647L28.7399 21.6767C27.7497 26.8489 27.7426 33.0638 28.7838 38.6014L28.7399 38.3209C29.1507 39.7787 30.26 40.9035 31.6695 41.3129L31.6993 41.32C34.347 42.0411 45.0158 42.0411 45.0158 42.0411C45.0158 42.0411 55.6534 42.0411 58.3323 41.32C59.7702 40.9035 60.8808 39.7787 61.2846 38.3507L61.2917 38.3209C61.7422 35.9155 62 33.1473 62 30.3197C62 30.2163 62 30.1115 61.9986 30.0066C62 29.9103 62 29.7955 62 29.6808C62 26.8518 61.7422 24.0836 61.2478 21.3991ZM41.6116 35.1717V24.8401L50.4883 30.0137L41.6116 35.1717Z" fill="#FF363D"/>
<path d="M28.6307 58.241L25.9507 53.901H27.4007L29.2907 57.101L31.1507 53.901H32.5507L29.8807 58.241V61.041H28.6307V58.241ZM34.5471 61.181C34.1338 61.181 33.7638 61.1143 33.4371 60.981C33.1171 60.841 32.8438 60.651 32.6171 60.411C32.3971 60.171 32.2271 59.8843 32.1071 59.551C31.9938 59.2177 31.9371 58.851 31.9371 58.451C31.9371 58.0577 31.9938 57.6943 32.1071 57.361C32.2271 57.0277 32.3971 56.741 32.6171 56.501C32.8438 56.261 33.1171 56.0743 33.4371 55.941C33.7638 55.801 34.1338 55.731 34.5471 55.731C34.9605 55.731 35.3271 55.801 35.6471 55.941C35.9738 56.0743 36.2471 56.261 36.4671 56.501C36.6938 56.741 36.8638 57.0277 36.9771 57.361C37.0971 57.6943 37.1571 58.0577 37.1571 58.451C37.1571 58.851 37.0971 59.2177 36.9771 59.551C36.8638 59.8843 36.6938 60.171 36.4671 60.411C36.2471 60.651 35.9738 60.841 35.6471 60.981C35.3271 61.1143 34.9605 61.181 34.5471 61.181ZM34.5471 60.281C34.8005 60.281 35.0205 60.2277 35.2071 60.121C35.3938 60.0143 35.5471 59.8743 35.6671 59.701C35.7871 59.5277 35.8738 59.3343 35.9271 59.121C35.9871 58.901 36.0171 58.6777 36.0171 58.451C36.0171 58.231 35.9871 58.011 35.9271 57.791C35.8738 57.571 35.7871 57.3777 35.6671 57.211C35.5471 57.0377 35.3938 56.8977 35.2071 56.791C35.0205 56.6843 34.8005 56.631 34.5471 56.631C34.2938 56.631 34.0738 56.6843 33.8871 56.791C33.7005 56.8977 33.5471 57.0377 33.4271 57.211C33.3071 57.3777 33.2171 57.571 33.1571 57.791C33.1038 58.011 33.0771 58.231 33.0771 58.451C33.0771 58.6777 33.1038 58.901 33.1571 59.121C33.2171 59.3343 33.3071 59.5277 33.4271 59.701C33.5471 59.8743 33.7005 60.0143 33.8871 60.121C34.0738 60.2277 34.2938 60.281 34.5471 60.281ZM42.6449 61.041H41.5249V60.321H41.5049C41.3649 60.581 41.1549 60.791 40.8749 60.951C40.6015 61.1043 40.3215 61.181 40.0349 61.181C39.3549 61.181 38.8615 61.0143 38.5549 60.681C38.2549 60.341 38.1049 59.831 38.1049 59.151V55.871H39.2449V59.041C39.2449 59.4943 39.3315 59.8143 39.5049 60.001C39.6782 60.1877 39.9215 60.281 40.2349 60.281C40.4749 60.281 40.6749 60.2443 40.8349 60.171C40.9949 60.0977 41.1249 60.001 41.2249 59.881C41.3249 59.7543 41.3949 59.6043 41.4349 59.431C41.4815 59.2577 41.5049 59.071 41.5049 58.871V55.871H42.6449V61.041ZM43.3271 55.871H44.1871V54.321H45.3271V55.871H46.3571V56.721H45.3271V59.481C45.3271 59.601 45.3304 59.7043 45.3371 59.791C45.3504 59.8777 45.3737 59.951 45.4071 60.011C45.4471 60.071 45.5037 60.1177 45.5771 60.151C45.6504 60.1777 45.7504 60.191 45.8771 60.191C45.9571 60.191 46.0371 60.191 46.1171 60.191C46.1971 60.1843 46.2771 60.171 46.3571 60.151V61.031C46.2304 61.0443 46.1071 61.0577 45.9871 61.071C45.8671 61.0843 45.7437 61.091 45.6171 61.091C45.3171 61.091 45.0737 61.0643 44.8871 61.011C44.7071 60.951 44.5637 60.8677 44.4571 60.761C44.3571 60.6477 44.2871 60.5077 44.2471 60.341C44.2137 60.1743 44.1937 59.9843 44.1871 59.771V56.721H43.3271V55.871ZM51.7171 61.041H50.5971V60.321H50.5771C50.4371 60.581 50.2271 60.791 49.9471 60.951C49.6738 61.1043 49.3938 61.181 49.1071 61.181C48.4271 61.181 47.9338 61.0143 47.6271 60.681C47.3271 60.341 47.1771 59.831 47.1771 59.151V55.871H48.3171V59.041C48.3171 59.4943 48.4038 59.8143 48.5771 60.001C48.7505 60.1877 48.9938 60.281 49.3071 60.281C49.5471 60.281 49.7471 60.2443 49.9071 60.171C50.0671 60.0977 50.1971 60.001 50.2971 59.881C50.3971 59.7543 50.4671 59.6043 50.5071 59.431C50.5538 59.2577 50.5771 59.071 50.5771 58.871V55.871H51.7171V61.041ZM52.9493 53.901H54.0893V56.541H54.1093C54.1893 56.4143 54.286 56.301 54.3993 56.201C54.5127 56.101 54.636 56.0177 54.7693 55.951C54.9093 55.8777 55.0527 55.8243 55.1993 55.791C55.3527 55.751 55.5027 55.731 55.6493 55.731C56.056 55.731 56.4093 55.8043 56.7093 55.951C57.016 56.091 57.2693 56.2877 57.4693 56.541C57.6693 56.7877 57.8193 57.0777 57.9193 57.411C58.0193 57.7443 58.0693 58.101 58.0693 58.481C58.0693 58.8277 58.0227 59.1643 57.9293 59.491C57.8427 59.8177 57.706 60.1077 57.5193 60.361C57.3393 60.6077 57.1093 60.8077 56.8293 60.961C56.5493 61.1077 56.2193 61.181 55.8393 61.181C55.666 61.181 55.4893 61.1677 55.3093 61.141C55.136 61.121 54.9693 61.0777 54.8093 61.011C54.6493 60.9443 54.5027 60.8577 54.3693 60.751C54.2427 60.6443 54.136 60.5043 54.0493 60.331H54.0293V61.041H52.9493V53.901ZM56.9293 58.461C56.9293 58.2277 56.8993 58.001 56.8393 57.781C56.7793 57.561 56.6893 57.3677 56.5693 57.201C56.4493 57.0277 56.2993 56.891 56.1193 56.791C55.9393 56.6843 55.7327 56.631 55.4993 56.631C55.0193 56.631 54.656 56.7977 54.4093 57.131C54.1693 57.4643 54.0493 57.9077 54.0493 58.461C54.0493 58.721 54.0793 58.9643 54.1393 59.191C54.206 59.411 54.3027 59.601 54.4293 59.761C54.556 59.921 54.706 60.0477 54.8793 60.141C55.0593 60.2343 55.266 60.281 55.4993 60.281C55.7593 60.281 55.9793 60.2277 56.1593 60.121C56.3393 60.0143 56.486 59.8777 56.5993 59.711C56.7193 59.5377 56.8027 59.3443 56.8493 59.131C56.9027 58.911 56.9293 58.6877 56.9293 58.461ZM62.5826 58.001C62.5693 57.821 62.5293 57.6477 62.4626 57.481C62.4026 57.3143 62.316 57.171 62.2026 57.051C62.096 56.9243 61.9626 56.8243 61.8026 56.751C61.6493 56.671 61.476 56.631 61.2826 56.631C61.0826 56.631 60.8993 56.6677 60.7326 56.741C60.5726 56.8077 60.4326 56.9043 60.3126 57.031C60.1993 57.151 60.106 57.2943 60.0326 57.461C59.966 57.6277 59.9293 57.8077 59.9226 58.001H62.5826ZM59.9226 58.751C59.9226 58.951 59.9493 59.1443 60.0026 59.331C60.0626 59.5177 60.1493 59.681 60.2626 59.821C60.376 59.961 60.5193 60.0743 60.6926 60.161C60.866 60.241 61.0726 60.281 61.3126 60.281C61.646 60.281 61.9126 60.211 62.1126 60.071C62.3193 59.9243 62.4726 59.7077 62.5726 59.421H63.6526C63.5926 59.701 63.4893 59.951 63.3426 60.171C63.196 60.391 63.0193 60.5777 62.8126 60.731C62.606 60.8777 62.3726 60.9877 62.1126 61.061C61.8593 61.141 61.5926 61.181 61.3126 61.181C60.906 61.181 60.546 61.1143 60.2326 60.981C59.9193 60.8477 59.6526 60.661 59.4326 60.421C59.2193 60.181 59.056 59.8943 58.9426 59.561C58.836 59.2277 58.7826 58.861 58.7826 58.461C58.7826 58.0943 58.8393 57.7477 58.9526 57.421C59.0726 57.0877 59.2393 56.7977 59.4526 56.551C59.6726 56.2977 59.936 56.0977 60.2426 55.951C60.5493 55.8043 60.896 55.731 61.2826 55.731C61.6893 55.731 62.0526 55.8177 62.3726 55.991C62.6993 56.1577 62.9693 56.381 63.1826 56.661C63.396 56.941 63.5493 57.2643 63.6426 57.631C63.7426 57.991 63.7693 58.3643 63.7226 58.751H59.9226ZM35.68 64.901H36.93V69.061C36.93 69.301 36.94 69.5443 36.96 69.791C36.9867 70.0377 37.0533 70.261 37.16 70.461C37.2733 70.6543 37.44 70.8143 37.66 70.941C37.8867 71.0677 38.2033 71.131 38.61 71.131C39.0167 71.131 39.33 71.0677 39.55 70.941C39.7767 70.8143 39.9433 70.6543 40.05 70.461C40.1633 70.261 40.23 70.0377 40.25 69.791C40.2767 69.5443 40.29 69.301 40.29 69.061V64.901H41.54V69.471C41.54 69.931 41.47 70.331 41.33 70.671C41.19 71.011 40.99 71.2977 40.73 71.531C40.4767 71.7577 40.17 71.9277 39.81 72.041C39.45 72.1543 39.05 72.211 38.61 72.211C38.17 72.211 37.77 72.1543 37.41 72.041C37.05 71.9277 36.74 71.7577 36.48 71.531C36.2267 71.2977 36.03 71.011 35.89 70.671C35.75 70.331 35.68 69.931 35.68 69.471V64.901ZM42.9768 64.901H46.3868C47.1735 64.901 47.7635 65.071 48.1568 65.411C48.5501 65.751 48.7468 66.2243 48.7468 66.831C48.7468 67.171 48.6968 67.4543 48.5968 67.681C48.4968 67.901 48.3801 68.081 48.2468 68.221C48.1135 68.3543 47.9801 68.451 47.8468 68.511C47.7201 68.571 47.6268 68.611 47.5668 68.631V68.651C47.6735 68.6643 47.7868 68.6977 47.9068 68.751C48.0335 68.8043 48.1501 68.891 48.2568 69.011C48.3635 69.1243 48.4501 69.2743 48.5168 69.461C48.5901 69.6477 48.6268 69.881 48.6268 70.161C48.6268 70.581 48.6568 70.9643 48.7168 71.311C48.7835 71.651 48.8835 71.8943 49.0168 72.041H47.6768C47.5835 71.8877 47.5268 71.7177 47.5068 71.531C47.4935 71.3443 47.4868 71.1643 47.4868 70.991C47.4868 70.6643 47.4668 70.3843 47.4268 70.151C47.3868 69.911 47.3135 69.7143 47.2068 69.561C47.1001 69.401 46.9535 69.2843 46.7668 69.211C46.5868 69.1377 46.3535 69.101 46.0668 69.101H44.2268V72.041H42.9768V64.901ZM44.2268 68.151H46.2768C46.6768 68.151 46.9801 68.0577 47.1868 67.871C47.3935 67.6777 47.4968 67.391 47.4968 67.011C47.4968 66.7843 47.4635 66.601 47.3968 66.461C47.3301 66.3143 47.2368 66.201 47.1168 66.121C47.0035 66.041 46.8701 65.9877 46.7168 65.961C46.5701 65.9343 46.4168 65.921 46.2568 65.921H44.2268V68.151ZM50.0178 64.901H51.2678V70.961H54.8978V72.041H50.0178V64.901Z" fill="#FF363D"/>
</svg>
