<svg width="90" height="90" viewBox="0 0 90 90" fill="none" xmlns="http://www.w3.org/2000/svg">
<rect width="90" height="90" rx="45" fill="#FFF7EA"/>
<path d="M38.625 40.625C35.6783 40.625 33.1708 39.5908 31.1025 37.5225C29.0342 35.4542 28 32.9467 28 30C28 27.0533 29.0342 24.5458 31.1025 22.4775C33.1708 20.4092 35.6783 19.375 38.625 19.375H54.35C56.475 19.375 58.2812 20.1188 59.7688 21.6063C61.2562 23.0938 62 24.9 62 27.025C62 29.15 61.2562 30.9563 59.7688 32.4438C58.2812 33.9313 56.475 34.675 54.35 34.675H39.475C38.1717 34.675 37.0667 34.2217 36.16 33.315C35.2533 32.4083 34.8 31.3033 34.8 30C34.8 28.6967 35.2533 27.5917 36.16 26.685C37.0667 25.7783 38.1717 25.325 39.475 25.325H55.2V28.725H39.475C39.1067 28.725 38.8021 28.8454 38.5612 29.0863C38.3204 29.3271 38.2 29.6317 38.2 30C38.2 30.3683 38.3204 30.6729 38.5612 30.9137C38.8021 31.1546 39.1067 31.275 39.475 31.275H54.35C55.54 31.2467 56.5458 30.8287 57.3675 30.0212C58.1892 29.2137 58.6 28.215 58.6 27.025C58.6 25.835 58.1892 24.8292 57.3675 24.0075C56.5458 23.1858 55.54 22.775 54.35 22.775H38.625C36.6133 22.7467 34.9062 23.4408 33.5037 24.8575C32.1013 26.2742 31.4 27.9883 31.4 30C31.4 31.9833 32.1013 33.6692 33.5037 35.0575C34.9062 36.4458 36.6133 37.1683 38.625 37.225H55.2V40.625H38.625Z" fill="#FFA82A"/>
<path d="M32.1318 57.245C32.1318 57.5183 32.1784 57.7517 32.2718 57.945C32.3651 58.1383 32.4951 58.2983 32.6618 58.425C32.8284 58.545 33.0184 58.635 33.2318 58.695C33.4518 58.7483 33.6884 58.775 33.9418 58.775C34.2151 58.775 34.4484 58.745 34.6418 58.685C34.8351 58.6183 34.9918 58.535 35.1118 58.435C35.2318 58.335 35.3184 58.2217 35.3718 58.095C35.4251 57.9617 35.4518 57.8283 35.4518 57.695C35.4518 57.4217 35.3884 57.2217 35.2618 57.095C35.1418 56.9617 35.0084 56.8683 34.8618 56.815C34.6084 56.7217 34.3118 56.635 33.9718 56.555C33.6384 56.4683 33.2251 56.3583 32.7318 56.225C32.4251 56.145 32.1684 56.0417 31.9618 55.915C31.7618 55.7817 31.6018 55.635 31.4818 55.475C31.3618 55.315 31.2751 55.145 31.2218 54.965C31.1751 54.785 31.1518 54.6017 31.1518 54.415C31.1518 54.055 31.2251 53.745 31.3718 53.485C31.5251 53.2183 31.7251 52.9983 31.9718 52.825C32.2184 52.6517 32.4984 52.525 32.8118 52.445C33.1251 52.3583 33.4418 52.315 33.7618 52.315C34.1351 52.315 34.4851 52.365 34.8118 52.465C35.1451 52.5583 35.4351 52.7017 35.6818 52.895C35.9351 53.0883 36.1351 53.3283 36.2818 53.615C36.4284 53.895 36.5018 54.2217 36.5018 54.595H35.2518C35.2184 54.135 35.0618 53.8117 34.7818 53.625C34.5018 53.4317 34.1451 53.335 33.7118 53.335C33.5651 53.335 33.4151 53.3517 33.2618 53.385C33.1084 53.4117 32.9684 53.4617 32.8418 53.535C32.7151 53.6017 32.6084 53.695 32.5218 53.815C32.4418 53.935 32.4018 54.085 32.4018 54.265C32.4018 54.5183 32.4784 54.7183 32.6318 54.865C32.7918 55.005 32.9984 55.1117 33.2518 55.185C33.2784 55.1917 33.3818 55.2217 33.5618 55.275C33.7484 55.3217 33.9551 55.375 34.1818 55.435C34.4084 55.495 34.6284 55.555 34.8418 55.615C35.0618 55.6683 35.2184 55.7083 35.3118 55.735C35.5451 55.8083 35.7484 55.9083 35.9218 56.035C36.0951 56.1617 36.2384 56.3083 36.3518 56.475C36.4718 56.635 36.5584 56.8083 36.6118 56.995C36.6718 57.1817 36.7018 57.3683 36.7018 57.555C36.7018 57.955 36.6184 58.2983 36.4518 58.585C36.2918 58.865 36.0784 59.095 35.8118 59.275C35.5451 59.455 35.2418 59.585 34.9018 59.665C34.5618 59.7517 34.2151 59.795 33.8618 59.795C33.4551 59.795 33.0718 59.745 32.7118 59.645C32.3518 59.545 32.0384 59.3917 31.7718 59.185C31.5051 58.9783 31.2918 58.715 31.1318 58.395C30.9718 58.0683 30.8884 57.685 30.8818 57.245H32.1318ZM41.1861 56.585C41.1728 56.405 41.1328 56.2317 41.0661 56.065C41.0061 55.8983 40.9195 55.755 40.8061 55.635C40.6995 55.5083 40.5661 55.4083 40.4061 55.335C40.2528 55.255 40.0795 55.215 39.8861 55.215C39.6861 55.215 39.5028 55.2517 39.3361 55.325C39.1761 55.3917 39.0361 55.4883 38.9161 55.615C38.8028 55.735 38.7095 55.8783 38.6361 56.045C38.5695 56.2117 38.5328 56.3917 38.5261 56.585H41.1861ZM38.5261 57.335C38.5261 57.535 38.5528 57.7283 38.6061 57.915C38.6661 58.1017 38.7528 58.265 38.8661 58.405C38.9795 58.545 39.1228 58.6583 39.2961 58.745C39.4695 58.825 39.6761 58.865 39.9161 58.865C40.2495 58.865 40.5161 58.795 40.7161 58.655C40.9228 58.5083 41.0761 58.2917 41.1761 58.005H42.2561C42.1961 58.285 42.0928 58.535 41.9461 58.755C41.7995 58.975 41.6228 59.1617 41.4161 59.315C41.2095 59.4617 40.9761 59.5717 40.7161 59.645C40.4628 59.725 40.1961 59.765 39.9161 59.765C39.5095 59.765 39.1495 59.6983 38.8361 59.565C38.5228 59.4317 38.2561 59.245 38.0361 59.005C37.8228 58.765 37.6595 58.4783 37.5461 58.145C37.4395 57.8117 37.3861 57.445 37.3861 57.045C37.3861 56.6783 37.4428 56.3317 37.5561 56.005C37.6761 55.6717 37.8428 55.3817 38.0561 55.135C38.2761 54.8817 38.5395 54.6817 38.8461 54.535C39.1528 54.3883 39.4995 54.315 39.8861 54.315C40.2928 54.315 40.6561 54.4017 40.9761 54.575C41.3028 54.7417 41.5728 54.965 41.7861 55.245C41.9995 55.525 42.1528 55.8483 42.2461 56.215C42.3461 56.575 42.3728 56.9483 42.3261 57.335H38.5261ZM43.2228 52.485H44.3628V59.625H43.2228V52.485ZM49.1549 56.585C49.1415 56.405 49.1015 56.2317 49.0349 56.065C48.9749 55.8983 48.8882 55.755 48.7749 55.635C48.6682 55.5083 48.5349 55.4083 48.3749 55.335C48.2215 55.255 48.0482 55.215 47.8549 55.215C47.6549 55.215 47.4715 55.2517 47.3049 55.325C47.1449 55.3917 47.0049 55.4883 46.8849 55.615C46.7715 55.735 46.6782 55.8783 46.6049 56.045C46.5382 56.2117 46.5015 56.3917 46.4949 56.585H49.1549ZM46.4949 57.335C46.4949 57.535 46.5215 57.7283 46.5749 57.915C46.6349 58.1017 46.7215 58.265 46.8349 58.405C46.9482 58.545 47.0915 58.6583 47.2649 58.745C47.4382 58.825 47.6449 58.865 47.8849 58.865C48.2182 58.865 48.4849 58.795 48.6849 58.655C48.8915 58.5083 49.0449 58.2917 49.1449 58.005H50.2249C50.1649 58.285 50.0615 58.535 49.9149 58.755C49.7682 58.975 49.5915 59.1617 49.3849 59.315C49.1782 59.4617 48.9449 59.5717 48.6849 59.645C48.4315 59.725 48.1649 59.765 47.8849 59.765C47.4782 59.765 47.1182 59.6983 46.8049 59.565C46.4915 59.4317 46.2249 59.245 46.0049 59.005C45.7915 58.765 45.6282 58.4783 45.5149 58.145C45.4082 57.8117 45.3549 57.445 45.3549 57.045C45.3549 56.6783 45.4115 56.3317 45.5249 56.005C45.6449 55.6717 45.8115 55.3817 46.0249 55.135C46.2449 54.8817 46.5082 54.6817 46.8149 54.535C47.1215 54.3883 47.4682 54.315 47.8549 54.315C48.2615 54.315 48.6249 54.4017 48.9449 54.575C49.2715 54.7417 49.5415 54.965 49.7549 55.245C49.9682 55.525 50.1215 55.8483 50.2149 56.215C50.3149 56.575 50.3415 56.9483 50.2949 57.335H46.4949ZM54.6515 56.185C54.6049 55.865 54.4749 55.625 54.2615 55.465C54.0549 55.2983 53.7915 55.215 53.4715 55.215C53.3249 55.215 53.1682 55.2417 53.0015 55.295C52.8349 55.3417 52.6815 55.435 52.5415 55.575C52.4015 55.7083 52.2849 55.8983 52.1915 56.145C52.0982 56.385 52.0515 56.7017 52.0515 57.095C52.0515 57.3083 52.0749 57.5217 52.1215 57.735C52.1749 57.9483 52.2549 58.1383 52.3615 58.305C52.4749 58.4717 52.6182 58.6083 52.7915 58.715C52.9649 58.815 53.1749 58.865 53.4215 58.865C53.7549 58.865 54.0282 58.7617 54.2415 58.555C54.4615 58.3483 54.5982 58.0583 54.6515 57.685H55.7915C55.6849 58.3583 55.4282 58.875 55.0215 59.235C54.6215 59.5883 54.0882 59.765 53.4215 59.765C53.0149 59.765 52.6549 59.6983 52.3415 59.565C52.0349 59.425 51.7749 59.2383 51.5615 59.005C51.3482 58.765 51.1849 58.4817 51.0715 58.155C50.9649 57.8283 50.9115 57.475 50.9115 57.095C50.9115 56.7083 50.9649 56.345 51.0715 56.005C51.1782 55.665 51.3382 55.3717 51.5515 55.125C51.7649 54.8717 52.0282 54.675 52.3415 54.535C52.6615 54.3883 53.0349 54.315 53.4615 54.315C53.7615 54.315 54.0449 54.355 54.3115 54.435C54.5849 54.5083 54.8249 54.6217 55.0315 54.775C55.2449 54.9283 55.4182 55.1217 55.5515 55.355C55.6849 55.5883 55.7649 55.865 55.7915 56.185H54.6515ZM56.1982 54.455H57.0582V52.905H58.1982V54.455H59.2282V55.305H58.1982V58.065C58.1982 58.185 58.2015 58.2883 58.2082 58.375C58.2215 58.4617 58.2448 58.535 58.2782 58.595C58.3182 58.655 58.3748 58.7017 58.4482 58.735C58.5215 58.7617 58.6215 58.775 58.7482 58.775C58.8282 58.775 58.9082 58.775 58.9882 58.775C59.0682 58.7683 59.1482 58.755 59.2282 58.735V59.615C59.1015 59.6283 58.9782 59.6417 58.8582 59.655C58.7382 59.6683 58.6148 59.675 58.4882 59.675C58.1882 59.675 57.9448 59.6483 57.7582 59.595C57.5782 59.535 57.4348 59.4517 57.3282 59.345C57.2282 59.2317 57.1582 59.0917 57.1182 58.925C57.0848 58.7583 57.0648 58.5683 57.0582 58.355V55.305H56.1982V54.455ZM35.0129 63.485H39.9429V64.565H36.2629V66.435H39.4929V67.455H36.2629V70.625H35.0129V63.485ZM40.8107 63.485H41.9507V64.565H40.8107V63.485ZM40.8107 65.455H41.9507V70.625H40.8107V65.455ZM43.2228 63.485H44.3628V70.625H43.2228V63.485ZM49.1549 67.585C49.1415 67.405 49.1015 67.2317 49.0349 67.065C48.9749 66.8983 48.8882 66.755 48.7749 66.635C48.6682 66.5083 48.5349 66.4083 48.3749 66.335C48.2215 66.255 48.0482 66.215 47.8549 66.215C47.6549 66.215 47.4715 66.2517 47.3049 66.325C47.1449 66.3917 47.0049 66.4883 46.8849 66.615C46.7715 66.735 46.6782 66.8783 46.6049 67.045C46.5382 67.2117 46.5015 67.3917 46.4949 67.585H49.1549ZM46.4949 68.335C46.4949 68.535 46.5215 68.7283 46.5749 68.915C46.6349 69.1017 46.7215 69.265 46.8349 69.405C46.9482 69.545 47.0915 69.6583 47.2649 69.745C47.4382 69.825 47.6449 69.865 47.8849 69.865C48.2182 69.865 48.4849 69.795 48.6849 69.655C48.8915 69.5083 49.0449 69.2917 49.1449 69.005H50.2249C50.1649 69.285 50.0615 69.535 49.9149 69.755C49.7682 69.975 49.5915 70.1617 49.3849 70.315C49.1782 70.4617 48.9449 70.5717 48.6849 70.645C48.4315 70.725 48.1649 70.765 47.8849 70.765C47.4782 70.765 47.1182 70.6983 46.8049 70.565C46.4915 70.4317 46.2249 70.245 46.0049 70.005C45.7915 69.765 45.6282 69.4783 45.5149 69.145C45.4082 68.8117 45.3549 68.445 45.3549 68.045C45.3549 67.6783 45.4115 67.3317 45.5249 67.005C45.6449 66.6717 45.8115 66.3817 46.0249 66.135C46.2449 65.8817 46.5082 65.6817 46.8149 65.535C47.1215 65.3883 47.4682 65.315 47.8549 65.315C48.2615 65.315 48.6249 65.4017 48.9449 65.575C49.2715 65.7417 49.5415 65.965 49.7549 66.245C49.9682 66.525 50.1215 66.8483 50.2149 67.215C50.3149 67.575 50.3415 67.9483 50.2949 68.335H46.4949ZM52.0215 68.965C52.0549 69.2983 52.1815 69.5317 52.4015 69.665C52.6215 69.7983 52.8849 69.865 53.1915 69.865C53.2982 69.865 53.4182 69.8583 53.5515 69.845C53.6915 69.825 53.8215 69.7917 53.9415 69.745C54.0615 69.6983 54.1582 69.6317 54.2315 69.545C54.3115 69.4517 54.3482 69.3317 54.3415 69.185C54.3349 69.0383 54.2815 68.9183 54.1815 68.825C54.0815 68.7317 53.9515 68.6583 53.7915 68.605C53.6382 68.545 53.4615 68.495 53.2615 68.455C53.0615 68.415 52.8582 68.3717 52.6515 68.325C52.4382 68.2783 52.2315 68.2217 52.0315 68.155C51.8382 68.0883 51.6615 67.9983 51.5015 67.885C51.3482 67.7717 51.2249 67.6283 51.1315 67.455C51.0382 67.275 50.9915 67.055 50.9915 66.795C50.9915 66.515 51.0582 66.2817 51.1915 66.095C51.3315 65.9017 51.5049 65.7483 51.7115 65.635C51.9249 65.515 52.1582 65.4317 52.4115 65.385C52.6715 65.3383 52.9182 65.315 53.1515 65.315C53.4182 65.315 53.6715 65.345 53.9115 65.405C54.1582 65.4583 54.3782 65.5483 54.5715 65.675C54.7715 65.8017 54.9349 65.9683 55.0615 66.175C55.1949 66.375 55.2782 66.6183 55.3115 66.905H54.1215C54.0682 66.6317 53.9415 66.4483 53.7415 66.355C53.5482 66.2617 53.3249 66.215 53.0715 66.215C52.9915 66.215 52.8949 66.2217 52.7815 66.235C52.6749 66.2483 52.5715 66.275 52.4715 66.315C52.3782 66.3483 52.2982 66.4017 52.2315 66.475C52.1649 66.5417 52.1315 66.6317 52.1315 66.745C52.1315 66.885 52.1782 66.9983 52.2715 67.085C52.3715 67.1717 52.4982 67.245 52.6515 67.305C52.8115 67.3583 52.9915 67.405 53.1915 67.445C53.3915 67.485 53.5982 67.5283 53.8115 67.575C54.0182 67.6217 54.2215 67.6783 54.4215 67.745C54.6215 67.8117 54.7982 67.9017 54.9515 68.015C55.1115 68.1283 55.2382 68.2717 55.3315 68.445C55.4315 68.6183 55.4815 68.8317 55.4815 69.085C55.4815 69.3917 55.4115 69.6517 55.2715 69.865C55.1315 70.0783 54.9482 70.2517 54.7215 70.385C54.5015 70.5183 54.2549 70.615 53.9815 70.675C53.7082 70.735 53.4382 70.765 53.1715 70.765C52.8449 70.765 52.5415 70.7283 52.2615 70.655C51.9882 70.5817 51.7482 70.4717 51.5415 70.325C51.3415 70.1717 51.1815 69.985 51.0615 69.765C50.9482 69.5383 50.8882 69.2717 50.8815 68.965H52.0215Z" fill="#FFA82A"/>
</svg>
