<svg width="90" height="90" viewBox="0 0 90 90" fill="none" xmlns="http://www.w3.org/2000/svg">
<rect width="90" height="90" rx="45" fill="#EDF5FF"/>
<path d="M31.666 24.0007V17.334H38.3327V20.0007H34.3327V24.0007H31.666ZM55.666 24.0007V20.0007H51.666V17.334H58.3327V24.0007H55.666ZM31.666 46.6673V40.0007H34.3327V44.0007H38.3327V46.6673H31.666ZM51.666 46.6673V44.0007H55.666V40.0007H58.3327V46.6673H51.666ZM38.3327 42.6673C37.5993 42.6673 36.9716 42.4062 36.4493 41.884C35.9271 41.3618 35.666 40.734 35.666 40.0007V24.0007C35.666 23.2673 35.9271 22.6395 36.4493 22.1173C36.9716 21.5951 37.5993 21.334 38.3327 21.334H51.666C52.3993 21.334 53.0271 21.5951 53.5493 22.1173C54.0716 22.6395 54.3327 23.2673 54.3327 24.0007V40.0007C54.3327 40.734 54.0716 41.3618 53.5493 41.884C53.0271 42.4062 52.3993 42.6673 51.666 42.6673H38.3327ZM40.9993 29.334H48.9993V26.6673H40.9993V29.334ZM40.9993 33.334H48.9993V30.6673H40.9993V33.334ZM40.9993 37.334H48.9993V34.6673H40.9993V37.334Z" fill="#2C7BFD"/>
<path d="M34.9101 60.62C34.9101 60.8933 34.9567 61.1267 35.0501 61.32C35.1434 61.5133 35.2734 61.6733 35.4401 61.8C35.6067 61.92 35.7967 62.01 36.0101 62.07C36.2301 62.1233 36.4667 62.15 36.7201 62.15C36.9934 62.15 37.2267 62.12 37.4201 62.06C37.6134 61.9933 37.7701 61.91 37.8901 61.81C38.0101 61.71 38.0967 61.5967 38.1501 61.47C38.2034 61.3367 38.2301 61.2033 38.2301 61.07C38.2301 60.7967 38.1667 60.5967 38.0401 60.47C37.9201 60.3367 37.7867 60.2433 37.6401 60.19C37.3867 60.0967 37.0901 60.01 36.7501 59.93C36.4167 59.8433 36.0034 59.7333 35.5101 59.6C35.2034 59.52 34.9467 59.4167 34.7401 59.29C34.5401 59.1567 34.3801 59.01 34.2601 58.85C34.1401 58.69 34.0534 58.52 34.0001 58.34C33.9534 58.16 33.9301 57.9767 33.9301 57.79C33.9301 57.43 34.0034 57.12 34.1501 56.86C34.3034 56.5933 34.5034 56.3733 34.7501 56.2C34.9967 56.0267 35.2767 55.9 35.5901 55.82C35.9034 55.7333 36.2201 55.69 36.5401 55.69C36.9134 55.69 37.2634 55.74 37.5901 55.84C37.9234 55.9333 38.2134 56.0767 38.4601 56.27C38.7134 56.4633 38.9134 56.7033 39.0601 56.99C39.2067 57.27 39.2801 57.5967 39.2801 57.97H38.0301C37.9967 57.51 37.8401 57.1867 37.5601 57C37.2801 56.8067 36.9234 56.71 36.4901 56.71C36.3434 56.71 36.1934 56.7267 36.0401 56.76C35.8867 56.7867 35.7467 56.8367 35.6201 56.91C35.4934 56.9767 35.3867 57.07 35.3001 57.19C35.2201 57.31 35.1801 57.46 35.1801 57.64C35.1801 57.8933 35.2567 58.0933 35.4101 58.24C35.5701 58.38 35.7767 58.4867 36.0301 58.56C36.0567 58.5667 36.1601 58.5967 36.3401 58.65C36.5267 58.6967 36.7334 58.75 36.9601 58.81C37.1867 58.87 37.4067 58.93 37.6201 58.99C37.8401 59.0433 37.9967 59.0833 38.0901 59.11C38.3234 59.1833 38.5267 59.2833 38.7001 59.41C38.8734 59.5367 39.0167 59.6833 39.1301 59.85C39.2501 60.01 39.3367 60.1833 39.3901 60.37C39.4501 60.5567 39.4801 60.7433 39.4801 60.93C39.4801 61.33 39.3967 61.6733 39.2301 61.96C39.0701 62.24 38.8567 62.47 38.5901 62.65C38.3234 62.83 38.0201 62.96 37.6801 63.04C37.3401 63.1267 36.9934 63.17 36.6401 63.17C36.2334 63.17 35.8501 63.12 35.4901 63.02C35.1301 62.92 34.8167 62.7667 34.5501 62.56C34.2834 62.3533 34.0701 62.09 33.9101 61.77C33.7501 61.4433 33.6667 61.06 33.6601 60.62H34.9101ZM43.9045 59.56C43.8578 59.24 43.7278 59 43.5145 58.84C43.3078 58.6733 43.0445 58.59 42.7245 58.59C42.5778 58.59 42.4211 58.6167 42.2545 58.67C42.0878 58.7167 41.9345 58.81 41.7945 58.95C41.6545 59.0833 41.5378 59.2733 41.4445 59.52C41.3511 59.76 41.3045 60.0767 41.3045 60.47C41.3045 60.6833 41.3278 60.8967 41.3745 61.11C41.4278 61.3233 41.5078 61.5133 41.6145 61.68C41.7278 61.8467 41.8711 61.9833 42.0445 62.09C42.2178 62.19 42.4278 62.24 42.6745 62.24C43.0078 62.24 43.2811 62.1367 43.4945 61.93C43.7145 61.7233 43.8511 61.4333 43.9045 61.06H45.0445C44.9378 61.7333 44.6811 62.25 44.2745 62.61C43.8745 62.9633 43.3411 63.14 42.6745 63.14C42.2678 63.14 41.9078 63.0733 41.5945 62.94C41.2878 62.8 41.0278 62.6133 40.8145 62.38C40.6011 62.14 40.4378 61.8567 40.3245 61.53C40.2178 61.2033 40.1645 60.85 40.1645 60.47C40.1645 60.0833 40.2178 59.72 40.3245 59.38C40.4311 59.04 40.5911 58.7467 40.8045 58.5C41.0178 58.2467 41.2811 58.05 41.5945 57.91C41.9145 57.7633 42.2878 57.69 42.7145 57.69C43.0145 57.69 43.2978 57.73 43.5645 57.81C43.8378 57.8833 44.0778 57.9967 44.2845 58.15C44.4978 58.3033 44.6711 58.4967 44.8045 58.73C44.9378 58.9633 45.0178 59.24 45.0445 59.56H43.9045ZM50.3011 61.85C50.3011 61.99 50.3178 62.09 50.3511 62.15C50.3911 62.21 50.4644 62.24 50.5711 62.24C50.6044 62.24 50.6444 62.24 50.6911 62.24C50.7378 62.24 50.7911 62.2333 50.8511 62.22V63.01C50.8111 63.0233 50.7578 63.0367 50.6911 63.05C50.6311 63.07 50.5678 63.0867 50.5011 63.1C50.4344 63.1133 50.3678 63.1233 50.3011 63.13C50.2344 63.1367 50.1778 63.14 50.1311 63.14C49.8978 63.14 49.7044 63.0933 49.5511 63C49.3978 62.9067 49.2978 62.7433 49.2511 62.51C49.0244 62.73 48.7444 62.89 48.4111 62.99C48.0844 63.09 47.7678 63.14 47.4611 63.14C47.2278 63.14 47.0044 63.1067 46.7911 63.04C46.5778 62.98 46.3878 62.89 46.2211 62.77C46.0611 62.6433 45.9311 62.4867 45.8311 62.3C45.7378 62.1067 45.6911 61.8833 45.6911 61.63C45.6911 61.31 45.7478 61.05 45.8611 60.85C45.9811 60.65 46.1344 60.4933 46.3211 60.38C46.5144 60.2667 46.7278 60.1867 46.9611 60.14C47.2011 60.0867 47.4411 60.0467 47.6811 60.02C47.8878 59.98 48.0844 59.9533 48.2711 59.94C48.4578 59.92 48.6211 59.89 48.7611 59.85C48.9078 59.81 49.0211 59.75 49.1011 59.67C49.1878 59.5833 49.2311 59.4567 49.2311 59.29C49.2311 59.1433 49.1944 59.0233 49.1211 58.93C49.0544 58.8367 48.9678 58.7667 48.8611 58.72C48.7611 58.6667 48.6478 58.6333 48.5211 58.62C48.3944 58.6 48.2744 58.59 48.1611 58.59C47.8411 58.59 47.5778 58.6567 47.3711 58.79C47.1644 58.9233 47.0478 59.13 47.0211 59.41H45.8811C45.9011 59.0767 45.9811 58.8 46.1211 58.58C46.2611 58.36 46.4378 58.1833 46.6511 58.05C46.8711 57.9167 47.1178 57.8233 47.3911 57.77C47.6644 57.7167 47.9444 57.69 48.2311 57.69C48.4844 57.69 48.7344 57.7167 48.9811 57.77C49.2278 57.8233 49.4478 57.91 49.6411 58.03C49.8411 58.15 50.0011 58.3067 50.1211 58.5C50.2411 58.6867 50.3011 58.9167 50.3011 59.19V61.85ZM49.1611 60.41C48.9878 60.5233 48.7744 60.5933 48.5211 60.62C48.2678 60.64 48.0144 60.6733 47.7611 60.72C47.6411 60.74 47.5244 60.77 47.4111 60.81C47.2978 60.8433 47.1978 60.8933 47.1111 60.96C47.0244 61.02 46.9544 61.1033 46.9011 61.21C46.8544 61.31 46.8311 61.4333 46.8311 61.58C46.8311 61.7067 46.8678 61.8133 46.9411 61.9C47.0144 61.9867 47.1011 62.0567 47.2011 62.11C47.3078 62.1567 47.4211 62.19 47.5411 62.21C47.6678 62.23 47.7811 62.24 47.8811 62.24C48.0078 62.24 48.1444 62.2233 48.2911 62.19C48.4378 62.1567 48.5744 62.1 48.7011 62.02C48.8344 61.94 48.9444 61.84 49.0311 61.72C49.1178 61.5933 49.1611 61.44 49.1611 61.26V60.41ZM51.5277 57.83H52.6077V58.59L52.6277 58.61C52.8011 58.3233 53.0277 58.1 53.3077 57.94C53.5877 57.7733 53.8977 57.69 54.2377 57.69C54.8044 57.69 55.2511 57.8367 55.5777 58.13C55.9044 58.4233 56.0677 58.8633 56.0677 59.45V63H54.9277V59.75C54.9144 59.3433 54.8277 59.05 54.6677 58.87C54.5077 58.6833 54.2577 58.59 53.9177 58.59C53.7244 58.59 53.5511 58.6267 53.3977 58.7C53.2444 58.7667 53.1144 58.8633 53.0077 58.99C52.9011 59.11 52.8177 59.2533 52.7577 59.42C52.6977 59.5867 52.6677 59.7633 52.6677 59.95V63H51.5277V57.83ZM21.8733 66.86H24.8333C25.3799 66.86 25.8533 66.9533 26.2533 67.14C26.6533 67.3267 26.9799 67.5833 27.2333 67.91C27.4866 68.23 27.6733 68.6067 27.7933 69.04C27.9199 69.4733 27.9833 69.9367 27.9833 70.43C27.9833 70.9233 27.9199 71.3867 27.7933 71.82C27.6733 72.2533 27.4866 72.6333 27.2333 72.96C26.9799 73.28 26.6533 73.5333 26.2533 73.72C25.8533 73.9067 25.3799 74 24.8333 74H21.8733V66.86ZM23.1233 72.98H24.3533C24.8399 72.98 25.2366 72.9167 25.5433 72.79C25.8566 72.6567 26.0999 72.4767 26.2733 72.25C26.4533 72.0167 26.5733 71.7467 26.6333 71.44C26.6999 71.1267 26.7333 70.79 26.7333 70.43C26.7333 70.07 26.6999 69.7367 26.6333 69.43C26.5733 69.1167 26.4533 68.8467 26.2733 68.62C26.0999 68.3867 25.8566 68.2067 25.5433 68.08C25.2366 67.9467 24.8399 67.88 24.3533 67.88H23.1233V72.98ZM31.3001 74.14C30.8867 74.14 30.5167 74.0733 30.1901 73.94C29.8701 73.8 29.5967 73.61 29.3701 73.37C29.1501 73.13 28.9801 72.8433 28.8601 72.51C28.7467 72.1767 28.6901 71.81 28.6901 71.41C28.6901 71.0167 28.7467 70.6533 28.8601 70.32C28.9801 69.9867 29.1501 69.7 29.3701 69.46C29.5967 69.22 29.8701 69.0333 30.1901 68.9C30.5167 68.76 30.8867 68.69 31.3001 68.69C31.7134 68.69 32.0801 68.76 32.4001 68.9C32.7267 69.0333 33.0001 69.22 33.2201 69.46C33.4467 69.7 33.6167 69.9867 33.7301 70.32C33.8501 70.6533 33.9101 71.0167 33.9101 71.41C33.9101 71.81 33.8501 72.1767 33.7301 72.51C33.6167 72.8433 33.4467 73.13 33.2201 73.37C33.0001 73.61 32.7267 73.8 32.4001 73.94C32.0801 74.0733 31.7134 74.14 31.3001 74.14ZM31.3001 73.24C31.5534 73.24 31.7734 73.1867 31.9601 73.08C32.1467 72.9733 32.3001 72.8333 32.4201 72.66C32.5401 72.4867 32.6267 72.2933 32.6801 72.08C32.7401 71.86 32.7701 71.6367 32.7701 71.41C32.7701 71.19 32.7401 70.97 32.6801 70.75C32.6267 70.53 32.5401 70.3367 32.4201 70.17C32.3001 69.9967 32.1467 69.8567 31.9601 69.75C31.7734 69.6433 31.5534 69.59 31.3001 69.59C31.0467 69.59 30.8267 69.6433 30.6401 69.75C30.4534 69.8567 30.3001 69.9967 30.1801 70.17C30.0601 70.3367 29.9701 70.53 29.9101 70.75C29.8567 70.97 29.8301 71.19 29.8301 71.41C29.8301 71.6367 29.8567 71.86 29.9101 72.08C29.9701 72.2933 30.0601 72.4867 30.1801 72.66C30.3001 72.8333 30.4534 72.9733 30.6401 73.08C30.8267 73.1867 31.0467 73.24 31.3001 73.24ZM38.3478 70.56C38.3011 70.24 38.1711 70 37.9578 69.84C37.7511 69.6733 37.4878 69.59 37.1678 69.59C37.0211 69.59 36.8645 69.6167 36.6978 69.67C36.5311 69.7167 36.3778 69.81 36.2378 69.95C36.0978 70.0833 35.9811 70.2733 35.8878 70.52C35.7945 70.76 35.7478 71.0767 35.7478 71.47C35.7478 71.6833 35.7711 71.8967 35.8178 72.11C35.8711 72.3233 35.9511 72.5133 36.0578 72.68C36.1711 72.8467 36.3145 72.9833 36.4878 73.09C36.6611 73.19 36.8711 73.24 37.1178 73.24C37.4511 73.24 37.7245 73.1367 37.9378 72.93C38.1578 72.7233 38.2945 72.4333 38.3478 72.06H39.4878C39.3811 72.7333 39.1245 73.25 38.7178 73.61C38.3178 73.9633 37.7845 74.14 37.1178 74.14C36.7111 74.14 36.3511 74.0733 36.0378 73.94C35.7311 73.8 35.4711 73.6133 35.2578 73.38C35.0445 73.14 34.8811 72.8567 34.7678 72.53C34.6611 72.2033 34.6078 71.85 34.6078 71.47C34.6078 71.0833 34.6611 70.72 34.7678 70.38C34.8745 70.04 35.0345 69.7467 35.2478 69.5C35.4611 69.2467 35.7245 69.05 36.0378 68.91C36.3578 68.7633 36.7311 68.69 37.1578 68.69C37.4578 68.69 37.7411 68.73 38.0078 68.81C38.2811 68.8833 38.5211 68.9967 38.7278 69.15C38.9411 69.3033 39.1145 69.4967 39.2478 69.73C39.3811 69.9633 39.4611 70.24 39.4878 70.56H38.3478ZM44.9545 74H43.8345V73.28H43.8145C43.6745 73.54 43.4645 73.75 43.1845 73.91C42.9111 74.0633 42.6311 74.14 42.3445 74.14C41.6645 74.14 41.1711 73.9733 40.8645 73.64C40.5645 73.3 40.4145 72.79 40.4145 72.11V68.83H41.5545V72C41.5545 72.4533 41.6411 72.7733 41.8145 72.96C41.9878 73.1467 42.2311 73.24 42.5445 73.24C42.7845 73.24 42.9845 73.2033 43.1445 73.13C43.3045 73.0567 43.4345 72.96 43.5345 72.84C43.6345 72.7133 43.7045 72.5633 43.7445 72.39C43.7911 72.2167 43.8145 72.03 43.8145 71.83V68.83H44.9545V74ZM46.1566 68.83H47.2366V69.55H47.2666C47.3533 69.4233 47.4466 69.3067 47.5466 69.2C47.6466 69.0933 47.7566 69.0033 47.8766 68.93C48.0033 68.8567 48.1466 68.8 48.3066 68.76C48.4666 68.7133 48.65 68.69 48.8566 68.69C49.17 68.69 49.46 68.76 49.7266 68.9C50 69.04 50.1933 69.2567 50.3066 69.55C50.5 69.2833 50.7233 69.0733 50.9766 68.92C51.23 68.7667 51.5466 68.69 51.9266 68.69C52.4733 68.69 52.8966 68.8233 53.1966 69.09C53.5033 69.3567 53.6566 69.8033 53.6566 70.43V74H52.5166V70.98C52.5166 70.7733 52.51 70.5867 52.4966 70.42C52.4833 70.2467 52.4433 70.1 52.3766 69.98C52.3166 69.8533 52.2233 69.7567 52.0966 69.69C51.97 69.6233 51.7966 69.59 51.5766 69.59C51.19 69.59 50.91 69.71 50.7366 69.95C50.5633 70.19 50.4766 70.53 50.4766 70.97V74H49.3366V70.68C49.3366 70.32 49.27 70.05 49.1366 69.87C49.01 69.6833 48.7733 69.59 48.4266 69.59C48.28 69.59 48.1366 69.62 47.9966 69.68C47.8633 69.74 47.7433 69.8267 47.6366 69.94C47.5366 70.0533 47.4533 70.1933 47.3866 70.36C47.3266 70.5267 47.2966 70.7167 47.2966 70.93V74H46.1566V68.83ZM58.4078 70.96C58.3945 70.78 58.3545 70.6067 58.2878 70.44C58.2278 70.2733 58.1411 70.13 58.0278 70.01C57.9211 69.8833 57.7878 69.7833 57.6278 69.71C57.4745 69.63 57.3011 69.59 57.1078 69.59C56.9078 69.59 56.7245 69.6267 56.5578 69.7C56.3978 69.7667 56.2578 69.8633 56.1378 69.99C56.0245 70.11 55.9311 70.2533 55.8578 70.42C55.7911 70.5867 55.7545 70.7667 55.7478 70.96H58.4078ZM55.7478 71.71C55.7478 71.91 55.7745 72.1033 55.8278 72.29C55.8878 72.4767 55.9745 72.64 56.0878 72.78C56.2011 72.92 56.3445 73.0333 56.5178 73.12C56.6911 73.2 56.8978 73.24 57.1378 73.24C57.4711 73.24 57.7378 73.17 57.9378 73.03C58.1445 72.8833 58.2978 72.6667 58.3978 72.38H59.4778C59.4178 72.66 59.3145 72.91 59.1678 73.13C59.0211 73.35 58.8445 73.5367 58.6378 73.69C58.4311 73.8367 58.1978 73.9467 57.9378 74.02C57.6845 74.1 57.4178 74.14 57.1378 74.14C56.7311 74.14 56.3711 74.0733 56.0578 73.94C55.7445 73.8067 55.4778 73.62 55.2578 73.38C55.0445 73.14 54.8811 72.8533 54.7678 72.52C54.6611 72.1867 54.6078 71.82 54.6078 71.42C54.6078 71.0533 54.6645 70.7067 54.7778 70.38C54.8978 70.0467 55.0645 69.7567 55.2778 69.51C55.4978 69.2567 55.7611 69.0567 56.0678 68.91C56.3745 68.7633 56.7211 68.69 57.1078 68.69C57.5145 68.69 57.8778 68.7767 58.1978 68.95C58.5245 69.1167 58.7945 69.34 59.0078 69.62C59.2211 69.9 59.3745 70.2233 59.4678 70.59C59.5678 70.95 59.5945 71.3233 59.5478 71.71H55.7478ZM60.4145 68.83H61.4945V69.59L61.5145 69.61C61.6878 69.3233 61.9145 69.1 62.1945 68.94C62.4745 68.7733 62.7845 68.69 63.1245 68.69C63.6911 68.69 64.1378 68.8367 64.4645 69.13C64.7911 69.4233 64.9545 69.8633 64.9545 70.45V74H63.8145V70.75C63.8011 70.3433 63.7145 70.05 63.5545 69.87C63.3945 69.6833 63.1445 69.59 62.8045 69.59C62.6111 69.59 62.4378 69.6267 62.2845 69.7C62.1311 69.7667 62.0011 69.8633 61.8945 69.99C61.7878 70.11 61.7045 70.2533 61.6445 70.42C61.5845 70.5867 61.5545 70.7633 61.5545 70.95V74H60.4145V68.83ZM65.6366 68.83H66.4966V67.28H67.6366V68.83H68.6666V69.68H67.6366V72.44C67.6366 72.56 67.64 72.6633 67.6466 72.75C67.66 72.8367 67.6833 72.91 67.7166 72.97C67.7566 73.03 67.8133 73.0767 67.8866 73.11C67.96 73.1367 68.06 73.15 68.1866 73.15C68.2666 73.15 68.3466 73.15 68.4266 73.15C68.5066 73.1433 68.5866 73.13 68.6666 73.11V73.99C68.54 74.0033 68.4166 74.0167 68.2966 74.03C68.1766 74.0433 68.0533 74.05 67.9266 74.05C67.6266 74.05 67.3833 74.0233 67.1966 73.97C67.0166 73.91 66.8733 73.8267 66.7666 73.72C66.6666 73.6067 66.5966 73.4667 66.5566 73.3C66.5233 73.1333 66.5033 72.9433 66.4966 72.73V69.68H65.6366V68.83Z" fill="#2C7BFD"/>
</svg>
