<svg width="430" height="1353" viewBox="0 0 430 1353" fill="none" xmlns="http://www.w3.org/2000/svg">
<g opacity="0.75" filter="url(#filter0_f_1_1367)">
<path d="M631.596 676.562C631.596 807.584 559.404 913.798 470.35 913.798C381.296 913.798 309.104 807.584 309.104 676.562C309.104 545.54 381.296 439.326 470.35 439.326C559.404 439.326 631.596 545.54 631.596 676.562Z" fill="#58C8FF"/>
<path d="M631.596 676.562C631.596 807.584 559.404 913.798 470.35 913.798C381.296 913.798 309.104 807.584 309.104 676.562C309.104 545.54 381.296 439.326 470.35 439.326C559.404 439.326 631.596 545.54 631.596 676.562Z" fill="#58C8FF"/>
<path d="M631.596 676.562C631.596 807.584 559.404 913.798 470.35 913.798C381.296 913.798 309.104 807.584 309.104 676.562C309.104 545.54 381.296 439.326 470.35 439.326C559.404 439.326 631.596 545.54 631.596 676.562Z" fill="#58C8FF"/>
<path d="M631.596 676.562C631.596 807.584 559.404 913.798 470.35 913.798C381.296 913.798 309.104 807.584 309.104 676.562C309.104 545.54 381.296 439.326 470.35 439.326C559.404 439.326 631.596 545.54 631.596 676.562Z" fill="#58C8FF"/>
</g>
<defs>
<filter id="filter0_f_1_1367" x="-129.381" y="0.84198" width="1199.46" height="1351.44" filterUnits="userSpaceOnUse" color-interpolation-filters="sRGB">
<feFlood flood-opacity="0" result="BackgroundImageFix"/>
<feBlend mode="normal" in="SourceGraphic" in2="BackgroundImageFix" result="shape"/>
<feGaussianBlur stdDeviation="219.242" result="effect1_foregroundBlur_1_1367"/>
</filter>
</defs>
</svg>
