<svg width="115" height="47" viewBox="0 0 115 47" fill="none" xmlns="http://www.w3.org/2000/svg">
<path d="M77.4619 12.912H82.9019V10.16C82.9019 8.06932 83.1579 6.38399 83.6699 5.10398C84.1819 3.78132 84.8646 2.77865 85.7179 2.09599C86.5713 1.37065 87.5312 0.901321 88.5979 0.687988C89.7072 0.431986 90.8593 0.303986 92.0539 0.303986C94.4006 0.303986 96.1073 0.45332 97.1739 0.751987V6.44799C96.7046 6.31999 96.1926 6.23465 95.6379 6.19199C95.1259 6.10665 94.5072 6.06399 93.7819 6.06399C92.8006 6.06399 91.9472 6.29865 91.2219 6.76799C90.5392 7.23732 90.1979 8.15465 90.1979 9.51999V12.912H96.4059V18.352H90.1979V46H82.9019V18.352H77.4619V12.912Z" fill="#7ACFF9"/>
<path d="M102.96 12L109.845 13.2642L103.885 45.7216L97.0001 44.4574L102.96 12Z" fill="white"/>
<path d="M102.96 12L109.845 13.2642L108.942 18.182L102.057 16.9178L102.96 12Z" fill="#EF8598"/>
<path d="M72.8751 38.64C72.8751 39.536 72.9818 40.176 73.1951 40.56C73.4511 40.944 73.9204 41.136 74.6031 41.136C74.8164 41.136 75.0724 41.136 75.3711 41.136C75.6698 41.136 76.0111 41.0933 76.3951 41.008V46.064C76.1391 46.1493 75.7978 46.2347 75.3711 46.32C74.9871 46.448 74.5818 46.5547 74.1551 46.64C73.7284 46.7253 73.3018 46.7893 72.8751 46.832C72.4484 46.8747 72.0858 46.896 71.7871 46.896C70.2938 46.896 69.0564 46.5973 68.0751 46C67.0938 45.4027 66.4538 44.3573 66.1551 42.864C64.7044 44.272 62.9124 45.296 60.7791 45.936C58.6884 46.576 56.6618 46.896 54.6991 46.896C53.2058 46.896 51.7764 46.6827 50.4111 46.256C49.0458 45.872 47.8298 45.296 46.7631 44.528C45.7391 43.7173 44.9071 42.7147 44.2671 41.52C43.6698 40.2827 43.3711 38.8533 43.3711 37.232C43.3711 35.184 43.7338 33.52 44.4591 32.24C45.2271 30.96 46.2084 29.9573 47.4031 29.232C48.6404 28.5067 50.0058 27.9947 51.4991 27.696C53.0351 27.3547 54.5711 27.0987 56.1071 26.928C57.4298 26.672 58.6884 26.5013 59.8831 26.416C61.0778 26.288 62.1231 26.096 63.0191 25.84C63.9578 25.584 64.6831 25.2 65.1951 24.688C65.7498 24.1333 66.0271 23.3227 66.0271 22.256C66.0271 21.3173 65.7924 20.5493 65.3231 19.952C64.8964 19.3547 64.3418 18.9067 63.6591 18.608C63.0191 18.2667 62.2938 18.0533 61.4831 17.968C60.6724 17.84 59.9044 17.776 59.1791 17.776C57.1311 17.776 55.4458 18.2027 54.1231 19.056C52.8004 19.9093 52.0538 21.232 51.8831 23.024H44.5871C44.7151 20.8907 45.2271 19.12 46.1231 17.712C47.0191 16.304 48.1498 15.1733 49.5151 14.32C50.9231 13.4667 52.5018 12.8693 54.2511 12.528C56.0004 12.1867 57.7924 12.016 59.6271 12.016C61.2484 12.016 62.8484 12.1867 64.4271 12.528C66.0058 12.8693 67.4138 13.424 68.6511 14.192C69.9311 14.96 70.9551 15.9627 71.7231 17.2C72.4911 18.3947 72.8751 19.8667 72.8751 21.616V38.64ZM65.5791 29.424C64.4698 30.1493 63.1044 30.5973 61.4831 30.768C59.8618 30.896 58.2404 31.1093 56.6191 31.408C55.8511 31.536 55.1044 31.728 54.3791 31.984C53.6538 32.1973 53.0138 32.5173 52.4591 32.944C51.9044 33.328 51.4564 33.8613 51.1151 34.544C50.8164 35.184 50.6671 35.9733 50.6671 36.912C50.6671 37.7227 50.9018 38.4053 51.3711 38.96C51.8404 39.5147 52.3951 39.9627 53.0351 40.304C53.7178 40.6027 54.4431 40.816 55.2111 40.944C56.0218 41.072 56.7471 41.136 57.3871 41.136C58.1978 41.136 59.0724 41.0293 60.0111 40.816C60.9498 40.6027 61.8244 40.24 62.6351 39.728C63.4884 39.216 64.1924 38.576 64.7471 37.808C65.3018 36.9973 65.5791 36.016 65.5791 34.864V29.424Z" fill="#7ACFF9"/>
<path d="M0 0.303986H18.944C22.4427 0.303986 25.472 0.901319 28.032 2.09599C30.592 3.29065 32.6827 4.93332 34.304 7.02399C35.9253 9.07199 37.12 11.4827 37.888 14.256C38.6987 17.0293 39.104 19.9947 39.104 23.152C39.104 26.3093 38.6987 29.2747 37.888 32.048C37.12 34.8213 35.9253 37.2533 34.304 39.344C32.6827 41.392 30.592 43.0133 28.032 44.208C25.472 45.4027 22.4427 46 18.944 46H0V0.303986ZM8 39.472H15.872C18.9867 39.472 21.5253 39.0667 23.488 38.256C25.4933 37.4027 27.0507 36.2507 28.16 34.8C29.312 33.3067 30.08 31.5787 30.464 29.616C30.8907 27.6107 31.104 25.456 31.104 23.152C31.104 20.848 30.8907 18.7147 30.464 16.752C30.08 14.7467 29.312 13.0187 28.16 11.568C27.0507 10.0747 25.4933 8.92265 23.488 8.11199C21.5253 7.25865 18.9867 6.83199 15.872 6.83199H8V39.472Z" fill="#7ACFF9"/>
<path d="M106.771 3.52844C106.858 3.32781 107.142 3.32781 107.229 3.52844L108.171 5.69891C108.197 5.75708 108.243 5.80348 108.301 5.82872L110.472 6.77067C110.672 6.85774 110.672 7.14226 110.472 7.22933L108.301 8.17128C108.243 8.19652 108.197 8.24292 108.171 8.30109L107.229 10.4716C107.142 10.6722 106.858 10.6722 106.771 10.4716L105.829 8.30109C105.803 8.24292 105.757 8.19652 105.699 8.17128L103.528 7.22933C103.328 7.14226 103.328 6.85774 103.528 6.77067L105.699 5.82872C105.757 5.80348 105.803 5.75708 105.829 5.69891L106.771 3.52844Z" fill="white"/>
<path d="M112.271 0.528441C112.358 0.327811 112.642 0.327811 112.729 0.528441L113.217 1.65287C113.243 1.71104 113.289 1.75744 113.347 1.78268L114.472 2.27067C114.672 2.35774 114.672 2.64226 114.472 2.72933L113.347 3.21732C113.289 3.24256 113.243 3.28896 113.217 3.34713L112.729 4.47156C112.642 4.67219 112.358 4.67219 112.271 4.47156L111.783 3.34713C111.757 3.28896 111.711 3.24256 111.653 3.21732L110.528 2.72933C110.328 2.64226 110.328 2.35774 110.528 2.27067L111.653 1.78268C111.711 1.75744 111.757 1.71104 111.783 1.65287L112.271 0.528441Z" fill="#EF8598"/>
</svg>
