<svg width="59" height="24" viewBox="0 0 59 24" fill="none" xmlns="http://www.w3.org/2000/svg">
<path d="M39.6423 6.60768H42.4264V5.19929C42.4264 4.12935 42.5574 3.26684 42.8194 2.61177C43.0814 1.93487 43.4308 1.42174 43.8675 1.07237C44.3042 0.701163 44.7955 0.460972 45.3414 0.351795C45.9091 0.220781 46.4987 0.155273 47.1101 0.155273C48.3111 0.155273 49.1845 0.231698 49.7304 0.384548V3.29959C49.4902 3.23409 49.2281 3.19042 48.9443 3.16858C48.6823 3.12491 48.3656 3.10307 47.9944 3.10307C47.4922 3.10307 47.0555 3.22317 46.6843 3.46336C46.3349 3.70355 46.1602 4.17302 46.1602 4.87175V6.60768H49.3373V9.39172H46.1602V23.5412H42.4264V9.39172H39.6423V6.60768Z" fill="white"/>
<path d="M52.6914 6.1416L56.2149 6.78856L53.1649 23.3993L49.6414 22.7524L52.6914 6.1416Z" fill="#7ACFF9"/>
<path d="M52.6914 6.1416L56.2149 6.78856L55.7528 9.30534L52.2293 8.65838L52.6914 6.1416Z" fill="#EF8598"/>
<path d="M37.2953 19.7748C37.2953 20.2333 37.3499 20.5609 37.4591 20.7574C37.5901 20.9539 37.8303 21.0522 38.1797 21.0522C38.2888 21.0522 38.4199 21.0522 38.5727 21.0522C38.7256 21.0522 38.9002 21.0303 39.0968 20.9867V23.5742C38.9658 23.6179 38.7911 23.6615 38.5727 23.7052C38.3762 23.7707 38.1688 23.8253 37.9504 23.869C37.732 23.9126 37.5137 23.9454 37.2953 23.9672C37.077 23.9891 36.8914 24 36.7385 24C35.9743 24 35.341 23.8471 34.8388 23.5414C34.3366 23.2357 34.0091 22.7008 33.8562 21.9365C33.1138 22.6571 32.1967 23.1811 31.105 23.5087C30.035 23.8362 28.9978 24 27.9934 24C27.2291 24 26.4977 23.8908 25.7989 23.6724C25.1002 23.4759 24.4779 23.1811 23.932 22.7881C23.4079 22.3732 22.9821 21.8601 22.6546 21.2487C22.3489 20.6155 22.196 19.884 22.196 19.0542C22.196 18.0061 22.3816 17.1545 22.7529 16.4995C23.1459 15.8444 23.6481 15.3313 24.2595 14.9601C24.8927 14.5889 25.5915 14.3268 26.3557 14.174C27.1418 13.9993 27.9279 13.8683 28.714 13.7809C29.3909 13.6499 30.035 13.5626 30.6464 13.5189C31.2578 13.4534 31.7928 13.3551 32.2513 13.2241C32.7317 13.0931 33.1029 12.8966 33.3649 12.6346C33.6488 12.3507 33.7907 11.9358 33.7907 11.3899C33.7907 10.9096 33.6706 10.5165 33.4304 10.2108C33.2121 9.90513 32.9282 9.67586 32.5789 9.52301C32.2513 9.34832 31.8801 9.23915 31.4652 9.19547C31.0504 9.12997 30.6573 9.09721 30.2861 9.09721C29.238 9.09721 28.3755 9.31557 27.6986 9.75228C27.0217 10.189 26.6396 10.8659 26.5522 11.783H22.8184C22.8839 10.6912 23.1459 9.78503 23.6044 9.06446C24.063 8.34389 24.6416 7.76524 25.3404 7.32853C26.0609 6.89182 26.8689 6.58612 27.7641 6.41144C28.6594 6.23676 29.5765 6.14941 30.5154 6.14941C31.3451 6.14941 32.164 6.23676 32.9719 6.41144C33.7798 6.58612 34.5004 6.86999 35.1336 7.26303C35.7887 7.65607 36.3127 8.1692 36.7058 8.80243C37.0988 9.41383 37.2953 10.1672 37.2953 11.0624V19.7748ZM33.5615 15.0583C32.9937 15.4295 32.295 15.6588 31.4652 15.7461C30.6355 15.8116 29.8057 15.9208 28.976 16.0737C28.5829 16.1392 28.2008 16.2374 27.8296 16.3685C27.4584 16.4776 27.1309 16.6414 26.847 16.8598C26.5632 17.0563 26.3339 17.3292 26.1592 17.6786C26.0063 18.0061 25.9299 18.4101 25.9299 18.8905C25.9299 19.3053 26.05 19.6547 26.2902 19.9386C26.5304 20.2224 26.8143 20.4517 27.1418 20.6264C27.4912 20.7792 27.8624 20.8884 28.2554 20.9539C28.6703 21.0194 29.0415 21.0522 29.369 21.0522C29.7839 21.0522 30.2315 20.9976 30.7119 20.8884C31.1923 20.7792 31.6399 20.5936 32.0548 20.3316C32.4915 20.0696 32.8518 19.742 33.1357 19.349C33.4195 18.9341 33.5615 18.4319 33.5615 17.8424V15.0583Z" fill="white"/>
<path d="M0 0.155273H9.69499C11.4855 0.155273 13.0358 0.460971 14.346 1.07237C15.6561 1.68376 16.726 2.52443 17.5558 3.59437C18.3855 4.64248 18.9969 5.87619 19.39 7.2955C19.8048 8.71481 20.0123 10.2324 20.0123 11.8482C20.0123 13.464 19.8048 14.9816 19.39 16.4009C18.9969 17.8202 18.3855 19.0649 17.5558 20.1348C16.726 21.1829 15.6561 22.0127 14.346 22.6241C13.0358 23.2355 11.4855 23.5412 9.69499 23.5412H0V0.155273ZM4.09417 20.2003H8.12283C9.71682 20.2003 11.016 19.9929 12.0205 19.578C13.0467 19.1413 13.8437 18.5517 14.4115 17.8093C15.001 17.0451 15.3941 16.1607 15.5906 15.1563C15.8089 14.13 15.9181 13.0273 15.9181 11.8482C15.9181 10.6691 15.8089 9.57732 15.5906 8.57288C15.3941 7.54661 15.001 6.66227 14.4115 5.91986C13.8437 5.15562 13.0467 4.56606 12.0205 4.15118C11.016 3.71447 9.71682 3.49611 8.12283 3.49611H4.09417V20.2003Z" fill="white"/>
<path d="M54.6421 1.8056C54.6867 1.70292 54.8323 1.70292 54.8769 1.8056L55.3589 2.91638C55.3718 2.94615 55.3956 2.96989 55.4253 2.98281L56.5361 3.46487C56.6388 3.50943 56.6388 3.65505 56.5361 3.69961L55.4253 4.18167C55.3956 4.19459 55.3718 4.21833 55.3589 4.2481L54.8769 5.35888C54.8323 5.46156 54.6867 5.46156 54.6421 5.35888L54.1601 4.2481C54.1471 4.21833 54.1234 4.19459 54.0936 4.18167L52.9828 3.69961C52.8802 3.65505 52.8802 3.50943 52.9828 3.46487L54.0936 2.98281C54.1234 2.96989 54.1471 2.94615 54.1601 2.91638L54.6421 1.8056Z" fill="#7ACFF9"/>
<path d="M57.4567 0.270441C57.5013 0.167764 57.6469 0.167764 57.6915 0.270441L57.9412 0.845892C57.9541 0.875659 57.9779 0.899406 58.0076 0.912324L58.5831 1.16206C58.6858 1.20662 58.6858 1.35223 58.5831 1.39679L58.0076 1.64653C57.9779 1.65945 57.9541 1.68319 57.9412 1.71296L57.6915 2.28841C57.6469 2.39109 57.5013 2.39109 57.4567 2.28841L57.207 1.71296C57.1941 1.68319 57.1703 1.65945 57.1406 1.64653L56.5651 1.39679C56.4624 1.35223 56.4624 1.20662 56.5651 1.16206L57.1406 0.912324C57.1703 0.899406 57.1941 0.875659 57.207 0.845892L57.4567 0.270441Z" fill="#EF8598"/>
</svg>
