<svg width="430" height="2848" viewBox="0 0 430 2848" fill="none" xmlns="http://www.w3.org/2000/svg">
<g opacity="0.75" filter="url(#filter0_f_40_1572)">
<path d="M460 634C460 741.696 426.197 829 384.5 829C342.803 829 309 741.696 309 634C309 526.304 342.803 439 384.5 439C426.197 439 460 526.304 460 634Z" fill="#58C8FF"/>
<path d="M460 634C460 741.696 426.197 829 384.5 829C342.803 829 309 741.696 309 634C309 526.304 342.803 439 384.5 439C426.197 439 460 526.304 460 634Z" fill="#58C8FF"/>
<path d="M460 634C460 741.696 426.197 829 384.5 829C342.803 829 309 741.696 309 634C309 526.304 342.803 439 384.5 439C426.197 439 460 526.304 460 634Z" fill="#58C8FF"/>
<path d="M460 634C460 741.696 426.197 829 384.5 829C342.803 829 309 741.696 309 634C309 526.304 342.803 439 384.5 439C426.197 439 460 526.304 460 634Z" fill="#58C8FF"/>
</g>
<g opacity="0.75" filter="url(#filter1_f_40_1572)">
<path d="M628.954 2115.73C628.954 2277.65 544.369 2408.9 440.028 2408.9C335.687 2408.9 251.102 2277.65 251.102 2115.73C251.102 1953.82 335.687 1822.56 440.028 1822.56C544.369 1822.56 628.954 1953.82 628.954 2115.73Z" fill="#58C8FF"/>
</g>
<defs>
<filter id="filter0_f_40_1572" x="-129.484" y="0.515808" width="1027.97" height="1266.97" filterUnits="userSpaceOnUse" color-interpolation-filters="sRGB">
<feFlood flood-opacity="0" result="BackgroundImageFix"/>
<feBlend mode="normal" in="SourceGraphic" in2="BackgroundImageFix" result="shape"/>
<feGaussianBlur stdDeviation="219.242" result="effect1_foregroundBlur_40_1572"/>
</filter>
<filter id="filter1_f_40_1572" x="-187.383" y="1384.08" width="1254.82" height="1463.31" filterUnits="userSpaceOnUse" color-interpolation-filters="sRGB">
<feFlood flood-opacity="0" result="BackgroundImageFix"/>
<feBlend mode="normal" in="SourceGraphic" in2="BackgroundImageFix" result="shape"/>
<feGaussianBlur stdDeviation="219.242" result="effect1_foregroundBlur_40_1572"/>
</filter>
</defs>
</svg>
