<svg width="20" height="20" viewBox="0 0 20 20" fill="none" xmlns="http://www.w3.org/2000/svg">
<g clip-path="url(#clip0_5699_471)">
<path d="M18.3325 9.23794V10.0046C18.3315 11.8016 17.7496 13.5502 16.6738 14.9895C15.598 16.4288 14.0858 17.4817 12.3627 17.9912C10.6397 18.5007 8.7981 18.4395 7.11266 17.8168C5.42722 17.194 3.98821 16.043 3.01026 14.5355C2.03231 13.028 1.56781 11.2447 1.68603 9.45154C1.80425 7.65841 2.49887 5.95155 3.66628 4.5855C4.83369 3.21946 6.41134 2.26743 8.16395 1.8714C9.91657 1.47537 11.7502 1.65655 13.3915 2.38794M18.3325 3.33317L10.0002 11.6748L7.50055 9.17484" stroke="#82B16E" stroke-width="2" stroke-linecap="round" stroke-linejoin="round"/>
</g>
<defs>
<clipPath id="clip0_5699_471">
<rect width="19.9974" height="20" fill="white" transform="translate(0.00195312)"/>
</clipPath>
</defs>
</svg>
