<svg width="23" height="23" viewBox="0 0 23 23" fill="none" xmlns="http://www.w3.org/2000/svg">
<g clip-path="url(#clip0_1_2819)">
<path d="M11.6927 3.29284C10.6906 3.56136 9.79975 4.00388 9.02025 4.62038C8.24075 5.23689 7.61236 5.95849 7.13506 6.7852C6.65776 7.6119 6.34703 8.51691 6.20287 9.50023C6.05871 10.4835 6.12089 11.4763 6.38942 12.4784C6.65794 13.4806 7.10046 14.3714 7.71697 15.1509C8.33347 15.9304 9.05507 16.5588 9.88178 17.0361C10.7085 17.5134 11.6135 17.8241 12.5968 17.9683C13.5801 18.1124 14.5729 18.0503 15.575 17.7817C16.2149 17.6103 16.8179 17.3613 17.384 17.035C17.9501 16.7086 18.4671 16.308 18.9352 15.8332C17.6376 15.482 16.517 14.8376 15.5734 13.8999C14.6298 12.9621 13.9833 11.8413 13.6339 10.5373C13.2845 9.23328 13.2839 7.93933 13.6322 6.65543C13.9806 5.37153 14.6288 4.25314 15.577 3.30027C14.9342 3.12309 14.2861 3.03469 13.6327 3.03507C12.9793 3.03545 12.3326 3.12137 11.6927 3.29284Z" fill="white"/>
</g>
<defs>
<clipPath id="clip0_1_2819">
<rect width="18" height="18" fill="white" transform="matrix(-0.965926 0.258819 0.258819 0.965926 18.1865 0)"/>
</clipPath>
</defs>
</svg>
