<svg width="683" height="2359" viewBox="0 0 683 2359" fill="none" xmlns="http://www.w3.org/2000/svg">
<g opacity="0.75" filter="url(#filter0_f_32_1553)">
<path d="M184 718.5C184 820.397 101.844 903 0.5 903C-100.844 903 -183 820.397 -183 718.5C-183 616.603 -100.844 534 0.5 534C101.844 534 184 616.603 184 718.5Z" fill="#58C8FF"/>
<path d="M184 718.5C184 820.397 101.844 903 0.5 903C-100.844 903 -183 820.397 -183 718.5C-183 616.603 -100.844 534 0.5 534C101.844 534 184 616.603 184 718.5Z" fill="#58C8FF"/>
<path d="M184 718.5C184 820.397 101.844 903 0.5 903C-100.844 903 -183 820.397 -183 718.5C-183 616.603 -100.844 534 0.5 534C101.844 534 184 616.603 184 718.5Z" fill="#58C8FF"/>
<path d="M184 718.5C184 820.397 101.844 903 0.5 903C-100.844 903 -183 820.397 -183 718.5C-183 616.603 -100.844 534 0.5 534C101.844 534 184 616.603 184 718.5Z" fill="#58C8FF"/>
</g>
<g opacity="0.75" filter="url(#filter1_f_32_1553)">
<path d="M184 683.5C184 785.397 101.844 868 0.5 868C-100.844 868 -183 785.397 -183 683.5C-183 581.603 -100.844 499 0.5 499C101.844 499 184 581.603 184 683.5Z" fill="#58C8FF"/>
<path d="M184 683.5C184 785.397 101.844 868 0.5 868C-100.844 868 -183 785.397 -183 683.5C-183 581.603 -100.844 499 0.5 499C101.844 499 184 581.603 184 683.5Z" fill="#58C8FF"/>
<path d="M184 683.5C184 785.397 101.844 868 0.5 868C-100.844 868 -183 785.397 -183 683.5C-183 581.603 -100.844 499 0.5 499C101.844 499 184 581.603 184 683.5Z" fill="#58C8FF"/>
<path d="M184 683.5C184 785.397 101.844 868 0.5 868C-100.844 868 -183 785.397 -183 683.5C-183 581.603 -100.844 499 0.5 499C101.844 499 184 581.603 184 683.5Z" fill="#58C8FF"/>
</g>
<g opacity="0.75" filter="url(#filter2_f_32_1553)">
<path d="M184 1531.5C184 1633.4 101.844 1716 0.5 1716C-100.844 1716 -183 1633.4 -183 1531.5C-183 1429.6 -100.844 1347 0.5 1347C101.844 1347 184 1429.6 184 1531.5Z" fill="#58C8FF"/>
<path d="M184 1531.5C184 1633.4 101.844 1716 0.5 1716C-100.844 1716 -183 1633.4 -183 1531.5C-183 1429.6 -100.844 1347 0.5 1347C101.844 1347 184 1429.6 184 1531.5Z" fill="#58C8FF"/>
<path d="M184 1531.5C184 1633.4 101.844 1716 0.5 1716C-100.844 1716 -183 1633.4 -183 1531.5C-183 1429.6 -100.844 1347 0.5 1347C101.844 1347 184 1429.6 184 1531.5Z" fill="#58C8FF"/>
<path d="M184 1531.5C184 1633.4 101.844 1716 0.5 1716C-100.844 1716 -183 1633.4 -183 1531.5C-183 1429.6 -100.844 1347 0.5 1347C101.844 1347 184 1429.6 184 1531.5Z" fill="#58C8FF"/>
</g>
<g opacity="0.75" filter="url(#filter3_f_32_1553)">
<path d="M31 1447.5C31 1675.32 -7.27966 1860 -54.5 1860C-101.72 1860 -140 1675.32 -140 1447.5C-140 1219.68 -101.72 1035 -54.5 1035C-7.27966 1035 31 1219.68 31 1447.5Z" fill="url(#paint0_linear_32_1553)"/>
</g>
<defs>
<filter id="filter0_f_32_1553" x="-682" y="35" width="1365" height="1367" filterUnits="userSpaceOnUse" color-interpolation-filters="sRGB">
<feFlood flood-opacity="0" result="BackgroundImageFix"/>
<feBlend mode="normal" in="SourceGraphic" in2="BackgroundImageFix" result="shape"/>
<feGaussianBlur stdDeviation="249.5" result="effect1_foregroundBlur_32_1553"/>
</filter>
<filter id="filter1_f_32_1553" x="-682" y="0" width="1365" height="1367" filterUnits="userSpaceOnUse" color-interpolation-filters="sRGB">
<feFlood flood-opacity="0" result="BackgroundImageFix"/>
<feBlend mode="normal" in="SourceGraphic" in2="BackgroundImageFix" result="shape"/>
<feGaussianBlur stdDeviation="249.5" result="effect1_foregroundBlur_32_1553"/>
</filter>
<filter id="filter2_f_32_1553" x="-682" y="848" width="1365" height="1367" filterUnits="userSpaceOnUse" color-interpolation-filters="sRGB">
<feFlood flood-opacity="0" result="BackgroundImageFix"/>
<feBlend mode="normal" in="SourceGraphic" in2="BackgroundImageFix" result="shape"/>
<feGaussianBlur stdDeviation="249.5" result="effect1_foregroundBlur_32_1553"/>
</filter>
<filter id="filter3_f_32_1553" x="-639" y="536" width="1169" height="1823" filterUnits="userSpaceOnUse" color-interpolation-filters="sRGB">
<feFlood flood-opacity="0" result="BackgroundImageFix"/>
<feBlend mode="normal" in="SourceGraphic" in2="BackgroundImageFix" result="shape"/>
<feGaussianBlur stdDeviation="249.5" result="effect1_foregroundBlur_32_1553"/>
</filter>
<linearGradient id="paint0_linear_32_1553" x1="-140" y1="1447.5" x2="30.9991" y2="1447.5" gradientUnits="userSpaceOnUse">
<stop stop-color="#8A00FF"/>
<stop offset="0.9944" stop-color="#55C6FF"/>
</linearGradient>
</defs>
</svg>
