<svg width="430" height="1352" viewBox="0 0 430 1352" fill="none" xmlns="http://www.w3.org/2000/svg">
<g opacity="0.75" filter="url(#filter0_f_1_1822)">
<path d="M631.596 676.034C631.596 807.056 559.404 913.27 470.35 913.27C381.296 913.27 309.104 807.056 309.104 676.034C309.104 545.012 381.296 438.798 470.35 438.798C559.404 438.798 631.596 545.012 631.596 676.034Z" fill="#58C8FF"/>
<path d="M631.596 676.034C631.596 807.056 559.404 913.27 470.35 913.27C381.296 913.27 309.104 807.056 309.104 676.034C309.104 545.012 381.296 438.798 470.35 438.798C559.404 438.798 631.596 545.012 631.596 676.034Z" fill="#58C8FF"/>
<path d="M631.596 676.034C631.596 807.056 559.404 913.27 470.35 913.27C381.296 913.27 309.104 807.056 309.104 676.034C309.104 545.012 381.296 438.798 470.35 438.798C559.404 438.798 631.596 545.012 631.596 676.034Z" fill="#58C8FF"/>
<path d="M631.596 676.034C631.596 807.056 559.404 913.27 470.35 913.27C381.296 913.27 309.104 807.056 309.104 676.034C309.104 545.012 381.296 438.798 470.35 438.798C559.404 438.798 631.596 545.012 631.596 676.034Z" fill="#58C8FF"/>
</g>
<defs>
<filter id="filter0_f_1_1822" x="-129.381" y="0.314148" width="1199.46" height="1351.44" filterUnits="userSpaceOnUse" color-interpolation-filters="sRGB">
<feFlood flood-opacity="0" result="BackgroundImageFix"/>
<feBlend mode="normal" in="SourceGraphic" in2="BackgroundImageFix" result="shape"/>
<feGaussianBlur stdDeviation="219.242" result="effect1_foregroundBlur_1_1822"/>
</filter>
</defs>
</svg>
