<svg width="430" height="1352" viewBox="0 0 430 1352" fill="none" xmlns="http://www.w3.org/2000/svg">
<g opacity="0.75" filter="url(#filter0_f_1_1821)">
<path d="M5.94165 675.764C5.94165 806.786 -66.2507 913 -155.305 913C-244.358 913 -316.551 806.786 -316.551 675.764C-316.551 544.742 -244.358 438.528 -155.305 438.528C-66.2507 438.528 5.94165 544.742 5.94165 675.764Z" fill="#58C8FF"/>
<path d="M5.94165 675.764C5.94165 806.786 -66.2507 913 -155.305 913C-244.358 913 -316.551 806.786 -316.551 675.764C-316.551 544.742 -244.358 438.528 -155.305 438.528C-66.2507 438.528 5.94165 544.742 5.94165 675.764Z" fill="#58C8FF"/>
<path d="M5.94165 675.764C5.94165 806.786 -66.2507 913 -155.305 913C-244.358 913 -316.551 806.786 -316.551 675.764C-316.551 544.742 -244.358 438.528 -155.305 438.528C-66.2507 438.528 5.94165 544.742 5.94165 675.764Z" fill="#58C8FF"/>
<path d="M5.94165 675.764C5.94165 806.786 -66.2507 913 -155.305 913C-244.358 913 -316.551 806.786 -316.551 675.764C-316.551 544.742 -244.358 438.528 -155.305 438.528C-66.2507 438.528 5.94165 544.742 5.94165 675.764Z" fill="#58C8FF"/>
</g>
<defs>
<filter id="filter0_f_1_1821" x="-755.035" y="0.0441284" width="1199.46" height="1351.44" filterUnits="userSpaceOnUse" color-interpolation-filters="sRGB">
<feFlood flood-opacity="0" result="BackgroundImageFix"/>
<feBlend mode="normal" in="SourceGraphic" in2="BackgroundImageFix" result="shape"/>
<feGaussianBlur stdDeviation="219.242" result="effect1_foregroundBlur_1_1821"/>
</filter>
</defs>
</svg>
